<?xml version="1.0" encoding="UTF-8" standalone="no"?>
<svg
   xmlns:dc="http://purl.org/dc/elements/1.1/"
   xmlns:cc="http://creativecommons.org/ns#"
   xmlns:rdf="http://www.w3.org/1999/02/22-rdf-syntax-ns#"
   xmlns:svg="http://www.w3.org/2000/svg"
   xmlns="http://www.w3.org/2000/svg"
   xmlns:sodipodi="http://sodipodi.sourceforge.net/DTD/sodipodi-0.dtd"
   xmlns:inkscape="http://www.inkscape.org/namespaces/inkscape"
   width="878"
   height="660"
   viewBox="0 0 878 660"
   fill="none"
   version="1.1"
   id="svg7541"
   sodipodi:docname="home-background.svg"
   inkscape:version="0.92.5 (2060ec1f9f, 2020-04-08)">
  <metadata
     id="metadata7545">
    <rdf:RDF>
      <cc:Work
         rdf:about="">
        <dc:format>image/svg+xml</dc:format>
        <dc:type
           rdf:resource="http://purl.org/dc/dcmitype/StillImage" />
      </cc:Work>
    </rdf:RDF>
  </metadata>
  <sodipodi:namedview
     pagecolor="#ffffff"
     bordercolor="#666666"
     borderopacity="1"
     objecttolerance="10"
     gridtolerance="10"
     guidetolerance="10"
     inkscape:pageopacity="0"
     inkscape:pageshadow="2"
     inkscape:window-width="1848"
     inkscape:window-height="1016"
     id="namedview7543"
     showgrid="false"
     inkscape:zoom="1.011377"
     inkscape:cx="418.44431"
     inkscape:cy="358.20879"
     inkscape:window-x="72"
     inkscape:window-y="27"
     inkscape:window-maximized="1"
     inkscape:current-layer="svg7541" />
  <path
     d="M 867.08625,660.98875 H 0.28034899 C -10.694531,513.18675 135.02325,420.05175 214.19125,369.45075 c 10.285,-6.573 19.446,-12.429 26.995,-17.593 33.088,-22.637 57.624,-72.068 83.719,-124.641 48.076,-96.856 101.443,-204.373499 223.332,-174.637299 107.163,26.2117 268.221,137.741299 328.774,304.590299 v 277.116 c -3.004,8.832 -6.309,17.734 -9.925,26.703 z"
     id="path7320"
     style="clip-rule:evenodd;opacity:0.5;fill:url(#paint0_linear);fill-rule:evenodd"
     inkscape:connector-curvature="0" />
  <defs
     id="defs7539">
    <linearGradient
       id="paint0_linear"
       x1="369.5"
       y1="153.5"
       x2="868"
       y2="652"
       gradientUnits="userSpaceOnUse">
      <stop
         stop-color="white"
         id="stop7534" />
      <stop
         offset="1"
         stop-color="white"
         stop-opacity="0"
         id="stop7536" />
    </linearGradient>
  </defs>
  <path
     inkscape:connector-curvature="0"
     id="path8174"
     style="fill:#f1f2f2;fill-opacity:1;fill-rule:nonzero;stroke:none;stroke-width:0.06038509"
     d="M 768.58966,390.55057 H 363.73975 c -12.80551,0 -23.28264,6.4191 -23.28264,14.26568 0,5.43366 5.02585,10.18119 12.36757,12.58784 h -35.65089 c -12.80576,0 -23.28274,6.4205 -23.28274,14.26708 0,7.84589 10.47698,14.26562 23.28274,14.26562 h 12.42247 c -3.46925,2.49358 -5.57464,5.71845 -5.57464,9.23127 v 5.70669 c 0,7.84588 10.47746,14.26618 23.28348,14.26618 h 398.82357 c 12.80551,0 23.28265,-6.4203 23.28265,-14.26618 v -5.70669 c 0,-7.84638 -10.47714,-14.26612 -23.28265,-14.26612 l -27.11824,0.31662 c 2.06559,0 5.42,-0.99853 7.67016,-3.00602 3.94509,-3.51918 4.11974,-8.87583 2.19125,-13.31087 -1.25073,-2.87454 -3.25429,-5.1539 -8.21811,-6.01136 l 47.93593,0.19304 c 12.80551,0 23.28316,-6.41981 23.28316,-14.2671 0,-7.84658 -10.47765,-14.26568 -23.28316,-14.26568" />
  <path
     inkscape:connector-curvature="0"
     id="path8176"
     style="fill:#d34e4e;fill-opacity:1;fill-rule:nonzero;stroke:none;stroke-width:0.06994014"
     d="M 417.59308,3.0247969 C 404.65555,4.5068285 389.97931,14.471202 388.30774,26.098751 382.33415,15.984007 361.4766,13.158425 348.94962,16.714182 c -33.05651,9.38387 -37.01792,49.102879 -17.78718,71.480932 10.34974,12.045086 23.71321,21.722706 37.84042,29.991736 11.82967,6.92407 41.53535,20.69809 41.6018,20.61765 0.091,0.049 22.3144,-23.99786 30.617,-34.90503 9.91472,-13.024955 18.58659,-27.06194 23.57052,-42.140336 9.26078,-28.015226 -13.05922,-62.64469094 -47.1991,-58.7343371" />
  <path
     inkscape:connector-curvature="0"
     id="path8178"
     style="fill:#e0e0e0;fill-opacity:1;fill-rule:nonzero;stroke:none;stroke-width:0.06994014"
     d="m 411.23831,139.1619 c -0.15876,0 -13.41801,-6.12607 -25.71699,-12.25002 0.0294,7e-4 0.058,0.002 0.0874,0.003 12.08916,6.00158 24.83785,11.88984 24.99451,11.88984 7.1e-4,0 7.1e-4,0 10e-4,0 v 0 c 0.13429,0.002 22.3221,-24.00836 30.617,-34.90503 9.91472,-13.024963 18.5866,-27.061947 23.57052,-42.140343 1.39881,-4.23208 2.07723,-8.61383 2.10311,-12.992082 0.20353,-0.549031 0.40355,-1.098761 0.59869,-1.650588 0.19863,5.041286 -0.45392,10.120339 -2.06673,14.999364 -4.98394,15.078396 -13.65582,29.115388 -23.57053,42.140339 -8.29421,10.89667 -30.48201,34.90503 -30.617,34.90503 v 0 c -7e-4,0 -7e-4,7e-4 -10e-4,7e-4" />
  <path
     inkscape:connector-curvature="0"
     id="path8180"
     style="fill:#b94545;fill-opacity:1;fill-rule:nonzero;stroke:none;stroke-width:0.06994014"
     d="m 410.60326,138.8045 c -0.15667,0 -12.90536,-5.88826 -24.99451,-11.88983 0.42593,0.0119 0.85187,0.0182 1.27851,0.0182 5.66655,0 11.40163,-1.07709 17.03672,-3.25223 12.67384,-4.89301 23.24251,-14.12231 31.86263,-24.021636 8.91317,-10.236445 16.73108,-21.651372 23.10403,-33.423698 3.05848,-5.651863 5.78265,-11.48627 8.00464,-17.468251 -0.0259,4.378253 -0.70429,8.760003 -2.1031,12.992082 -4.98393,15.078396 -13.6558,29.115381 -23.57052,42.140343 -8.29491,10.89667 -30.48271,34.90712 -30.617,34.90503 v 0 c -7e-4,0 -7e-4,0 -0.001,0" />
  <path
     inkscape:connector-curvature="0"
     id="path8182"
     style="fill:#ffffff;fill-opacity:1;fill-rule:nonzero;stroke:none;stroke-width:0.06994014"
     d="m 456.22382,55.696722 c -8.75371,1.963919 -17.50811,3.927839 -26.26253,5.891758 -5.46861,-10.920455 -10.93724,-21.84091 -16.40656,-32.761364 -0.78962,-1.578549 -3.24662,-0.962377 -3.46413,0.685413 -2.83398,21.453441 -5.66795,42.906183 -8.50193,64.358919 -0.16436,1.24284 -0.32872,2.484978 -0.49238,3.727818 -7.25069,-12.31856 -14.50069,-24.637819 -21.75138,-36.956377 -1.16241,-1.97581 -2.32551,-3.951618 -3.48792,-5.927427 -0.7008,-1.191081 -2.91301,-1.281304 -3.36411,0.245489 -2.09471,7.096127 -4.18873,14.192954 -6.28343,21.289081 -9.84618,1.947834 -19.69165,3.895667 -29.53782,5.843505 -2.31152,0.457409 -1.64709,3.840405 0.66932,3.381604 10.21616,-2.020576 20.43372,-4.041844 30.64988,-6.063114 0.59799,-0.118199 1.21486,-0.567215 1.38551,-1.144221 1.79536,-6.081996 3.59002,-12.162592 5.38609,-18.243888 7.43743,12.638185 14.87557,25.276373 22.3144,37.914558 1.16241,1.975806 2.32481,3.951614 3.48792,5.927414 0.87216,1.48204 3.23613,1.04072 3.46483,-0.68541 2.83398,-21.453434 5.66795,-42.906175 8.50193,-64.359617 0.13568,-1.026021 0.27067,-2.052043 0.40705,-3.078765 4.78041,9.546131 9.56012,19.091563 14.34053,28.637693 0.33292,0.663033 1.20577,1.071483 1.97861,0.898731 9.21111,-2.066731 18.42293,-4.133462 27.63474,-6.199495 2.29614,-0.515459 1.63591,-3.899163 -0.66862,-3.382305" />
  <path
     inkscape:connector-curvature="0"
     id="path8184"
     style="fill:#3b455a;fill-opacity:1;fill-rule:nonzero;stroke:none;stroke-width:0.06994014"
     d="m 717.5314,53.691538 v 0 c -0.17695,0.379075 -0.62737,0.542735 -1.00644,0.365787 L 687.00253,40.277017 c -0.37908,-0.176948 -0.54274,-0.627362 -0.36579,-1.007137 0.17694,-0.379076 0.62736,-0.542737 1.00713,-0.365787 l 29.52174,13.780306 c 0.37978,0.17695 0.54344,0.628063 0.36579,1.007139" />
  <path
     inkscape:connector-curvature="0"
     id="path8186"
     style="fill:#8ec3cb;fill-opacity:1;fill-rule:nonzero;stroke:none;stroke-width:0.06994014"
     d="m 722.77202,53.941924 -1.64849,3.530578 -15.75752,-7.354906 c -0.97566,-0.455311 -1.39671,-1.614218 -0.94209,-2.589184 0.4553,-0.975665 1.61491,-1.397405 2.58988,-0.942094 l 15.75822,7.355606" />
  <path
     inkscape:connector-curvature="0"
     id="path8188"
     style="fill:#474ebb;fill-opacity:1;fill-rule:nonzero;stroke:none;stroke-width:0.06994014"
     d="m 850.23933,110.12484 -2.24297,4.27475 -18.97617,-9.95389 -6.7821,12.92914 18.97616,9.95389 -2.24227,4.27473 c -0.90643,1.72753 -0.2406,3.8628 1.48762,4.76852 1.72752,0.90642 3.86279,0.24059 4.76852,-1.48692 l 11.26665,-21.47862 c 0.90643,-1.72753 0.2406,-3.8628 -1.48692,-4.76852 -1.72823,-0.90642 -3.86279,-0.2406 -4.76852,1.48692" />
  <path
     inkscape:connector-curvature="0"
     id="path8190"
     style="fill:#e0e0e0;fill-opacity:1;fill-rule:nonzero;stroke:none;stroke-width:0.06994014"
     d="m 834.47132,123.79185 -0.94138,-0.49378 0.94208,0.49378 h -7e-4 m 10.46654,-10.99669 -1.11623,-0.5854 1.11693,0.5854" />
  <path
     inkscape:connector-curvature="0"
     id="path8192"
     style="fill:#3e45a4;fill-opacity:1;fill-rule:nonzero;stroke:none;stroke-width:0.06994014"
     d="m 834.47202,123.79185 -0.94208,-0.49378 -0.44833,-0.23569 6.7821,-12.92844 3.95792,2.07582 1.11623,0.5854 -10.46654,10.99669" />
  <path
     inkscape:connector-curvature="0"
     id="path8194"
     style="fill:#3b455a;fill-opacity:1;fill-rule:nonzero;stroke:none;stroke-width:0.06994014"
     d="m 844.556,101.18929 -16.1401,30.76738 c -0.49656,0.94768 -1.66737,1.31277 -2.61505,0.81549 l -7.45982,-3.91245 17.93964,-34.199335 7.45912,3.912453 c 0.94769,0.497281 1.31348,1.668772 0.81621,2.616462" />
  <path
     inkscape:connector-curvature="0"
     id="path8196"
     style="fill:#8ec3cb;fill-opacity:1;fill-rule:nonzero;stroke:none;stroke-width:0.06994014"
     d="m 843.05088,85.443665 c -1.58135,-0.702894 -3.44036,0.02795 -4.24467,1.561062 l -1.31697,2.511555 c -0.8204,1.563156 -2.75214,2.166043 -4.31531,1.345651 l -86.26837,-45.25198 c -1.03931,-0.544833 -2.23739,-0.709193 -3.38441,-0.463003 l -24.69446,5.291671 c -0.4672,0.100017 -0.86586,0.402856 -1.08687,0.826693 l -2.55631,4.909099 c -0.22031,0.422439 -0.2406,0.921111 -0.0566,1.360336 l 9.72168,23.215233 c 0.45181,1.077778 1.26452,1.964624 2.29893,2.507354 l 86.27677,45.256174 c 1.56246,0.81969 2.16604,2.75144 1.34565,4.31531 l -1.31767,2.51084 c -0.80432,1.53309 -0.34901,3.47813 1.12813,4.37966 1.61981,0.98755 3.70892,0.39096 4.57618,-1.26172 L 844.6141,89.925425 c 0.86725,-1.652684 0.16995,-3.711016 -1.56317,-4.48176" />
  <path
     inkscape:connector-curvature="0"
     id="path8198"
     style="fill:#9bc9d0;fill-opacity:1;fill-rule:nonzero;stroke:none;stroke-width:0.06994014"
     d="M 813.60748,123.71491 731.30331,80.54226 c -0.98685,-0.518257 -1.79256,-1.306482 -2.27725,-2.230392 L 718.57491,58.407602 c -0.19793,-0.376978 -0.21123,-0.788925 -0.0357,-1.125337 l 2.03246,-3.909655 c 0.17555,-0.337111 0.52245,-0.563017 0.94559,-0.615473 l 22.37315,-2.789213 c 0.19793,-0.02517 0.39867,-0.03706 0.6008,-0.03706 0.85816,0 1.73941,0.220312 2.54232,0.641352 l 66.57393,73.142694" />
  <path
     inkscape:connector-curvature="0"
     id="path8200"
     style="fill:#3b455a;fill-opacity:1;fill-rule:nonzero;stroke:none;stroke-width:0.06994014"
     d="m 773.32895,92.850332 -5.75468,10.970098 -2.10379,-1.10365 5.75467,-10.970112 c 0.0573,-0.108401 0.19094,-0.150365 0.30004,-0.09301 l 1.71004,0.897328 c 0.10841,0.05665 0.15107,0.190938 0.0938,0.29935" />
  <path
     inkscape:connector-curvature="0"
     id="path8202"
     style="fill:#3b455a;fill-opacity:1;fill-rule:nonzero;stroke:none;stroke-width:0.06994014"
     d="m 743.95618,77.443212 -5.75397,10.969417 -2.1045,-1.103664 5.75467,-10.969409 c 0.0566,-0.108407 0.19094,-0.150371 0.30005,-0.09372 l 1.71004,0.897333 c 0.1084,0.05665 0.15106,0.190936 0.0938,0.300043" />
  <path
     inkscape:connector-curvature="0"
     id="path8204"
     style="fill:#3b455a;fill-opacity:1;fill-rule:nonzero;stroke:none;stroke-width:0.06994014"
     d="m 802.70171,108.25814 -5.75397,10.97011 -2.10451,-1.10365 5.75468,-10.97012 c 0.0573,-0.1084 0.19094,-0.15036 0.30005,-0.0937 l 1.71003,0.89733 c 0.10841,0.0566 0.15107,0.19164 0.0938,0.30004" />
  <path
     inkscape:connector-curvature="0"
     id="path8206"
     style="fill:#3b455a;fill-opacity:1;fill-rule:nonzero;stroke:none;stroke-width:0.06994014"
     d="m 784.98727,105.86829 -2.9144,5.55674 -1.72683,-0.90572 2.91511,-5.55674 c 0.0462,-0.0888 0.15737,-0.1231 0.24549,-0.0763 l 1.4037,0.73646 c 0.0888,0.0462 0.1238,0.15667 0.0769,0.24549" />
  <path
     inkscape:connector-curvature="0"
     id="path8208"
     style="fill:#3b455a;fill-opacity:1;fill-rule:nonzero;stroke:none;stroke-width:0.06994014"
     d="m 755.6145,90.460473 -2.9144,5.557444 -1.72682,-0.905722 2.91511,-5.556744 c 0.0462,-0.08956 0.15666,-0.123799 0.24548,-0.07694 l 1.40371,0.736463 c 0.0888,0.04683 0.12379,0.156667 0.0769,0.245495" />
  <path
     inkscape:connector-curvature="0"
     id="path8210"
     style="fill:#ccd2d9;fill-opacity:1;fill-rule:nonzero;stroke:none;stroke-width:0.06994014"
     d="m 479.40198,300.09767 -3.63479,49.73724 -12.0353,82.34389 h -9.25378 l -5.84489,-75.98004 -2.5885,-61.47179 33.35726,5.3707" />
  <path
     inkscape:connector-curvature="0"
     id="path8212"
     style="fill:#3b455a;fill-opacity:1;fill-rule:nonzero;stroke:none;stroke-width:0.06994014"
     d="m 454.53126,431.07724 v 5.00373 l 10.00704,5.004 5.00353,-5.004 -5.00353,-5.00373 h -10.00704" />
  <path
     inkscape:connector-curvature="0"
     id="path8214"
     style="fill:#ccd2d9;fill-opacity:1;fill-rule:nonzero;stroke:none;stroke-width:0.06994014"
     d="m 413.85198,288.37571 3.51729,69.71843 8.05291,80.03586 h 9.47828 l 7.70322,-75.83036 11.25336,-79.8143 -40.00506,5.89037" />
  <path
     inkscape:connector-curvature="0"
     id="path8216"
     style="fill:#3b455a;fill-opacity:1;fill-rule:nonzero;stroke:none;stroke-width:0.06994014"
     d="m 434.84592,437.00194 v 5.12529 l -10.24974,5.12451 -5.12521,-5.12451 5.12521,-5.12529 h 10.24974" />
  <path
     inkscape:connector-curvature="0"
     id="path8218"
     style="fill:#efbfa5;fill-opacity:1;fill-rule:nonzero;stroke:none;stroke-width:0.06994014"
     d="m 446.15663,176.59316 c -3.23333,-0.31542 -6.46736,-0.63225 -9.69999,-0.94838 -0.0357,-2.59059 0.13708,-5.18397 0.51476,-7.74727 -2.6962,-0.9435 -5.81204,-2.36049 -6.28482,-5.17697 -0.14898,-0.88755 0.002,-1.79467 0.15456,-2.68151 0.62876,-3.66557 1.25682,-7.33182 1.88559,-10.99739 0.21681,-1.26731 0.44831,-2.57309 1.13653,-3.65997 1.20646,-1.90726 3.55366,-2.74444 5.77635,-3.13331 5.67424,-0.99316 11.85975,0.228 16.26528,3.93972 1.1729,0.98756 2.23389,2.17514 2.75144,3.618 0.79873,2.2248 0.20703,4.6804 -0.39026,6.96744 -0.55112,2.1108 -1.10226,4.22159 -1.65338,6.33239 -0.63367,2.42831 -1.55058,5.18816 -3.88797,6.10228 -1.24075,0.48398 -2.7074,0.3455 -3.82993,1.06168 -1.98071,1.26382 -1.71074,4.2111 -2.73816,6.32329" />
  <path
     inkscape:connector-curvature="0"
     id="path8220"
     style="fill:#3b455a;fill-opacity:1;fill-rule:nonzero;stroke:none;stroke-width:0.06994014"
     d="m 468.8606,139.11644 c 0.28466,-2.99694 0.43643,-5.46723 -0.18394,-8.40052 -0.36299,-1.71773 -2.5591,-7.1269 -1.89118,-8.65369 -1.24913,2.64793 -4.61955,3.3781 -7.53255,3.66906 -10.91346,1.08967 -23.09215,-1.60863 -33.12715,3.99218 -1.83174,1.02322 -3.29279,2.61996 -4.43142,4.38315 -3.94252,6.10788 -3.95301,14.52168 -0.0251,20.63934 0.88125,1.37292 1.93525,2.62695 3.0424,3.82432 2.29193,2.47869 5.03359,5.54067 8.18229,6.45618 0.0713,-2.81649 -2.50595,-11.6933 -0.3455,-14.00482 3.03261,-3.24382 8.54669,-2.61226 12.48711,-2.05064 5.06018,0.72039 9.97767,0.67423 15.08399,0.0797 1.6429,-0.19164 3.31167,-0.38957 4.83847,-1.02743 3.65297,-1.52609 3.52498,-4.92029 3.85299,-8.38652 0.0161,-0.16646 0.0322,-0.34061 0.0496,-0.52035" />
  <path
     inkscape:connector-curvature="0"
     id="path8222"
     style="fill:#efbfa5;fill-opacity:1;fill-rule:nonzero;stroke:none;stroke-width:0.06994014"
     d="m 382.0313,134.91234 -1.17639,-6.02185 3.09136,-4.4412 -0.60848,-1.13304 -1.42537,0.69241 1.5107,-4.42021 -1.34355,-3.54597 -4.87833,-1.2876 -4.7937,2.04855 -0.76444,4.97904 2.17514,5.58262 1.25333,8.31378 6.95973,-0.76653" />
  <path
     inkscape:connector-curvature="0"
     id="path8224"
     style="fill:#ebb044;fill-opacity:1;fill-rule:nonzero;stroke:none;stroke-width:0.06994014"
     d="m 382.79996,130.66347 -9.2468,-0.57771 4.12788,50.44923 39.2525,20.75964 9.04396,-24.50214 -31.03174,-14.27338 -12.1458,-31.85564" />
  <path
     inkscape:connector-curvature="0"
     id="path8226"
     style="fill:#efbfa5;fill-opacity:1;fill-rule:nonzero;stroke:none;stroke-width:0.06994014"
     d="m 488.71241,112.99029 0.31474,-6.12815 -3.68865,-3.95932 0.44272,-1.20787 1.50861,0.48469 -2.12058,-4.162836 0.82949,-3.700528 4.64822,-1.963926 5.03429,1.351241 1.46105,4.821683 -1.36453,5.833006 -0.0671,8.4075 -6.99822,0.22451" />
  <path
     inkscape:connector-curvature="0"
     id="path8228"
     style="fill:#ebb044;fill-opacity:1;fill-rule:nonzero;stroke:none;stroke-width:0.06994014"
     d="m 487.35138,108.8925 9.07264,-1.87789 0.71828,34.90292 -3.56485,26.97592 -23.19844,34.04687 -18.99295,-27.47879 22.05213,-16.20583 13.91319,-50.3632" />
  <path
     inkscape:connector-curvature="0"
     id="path8230"
     style="fill:#ebb044;fill-opacity:1;fill-rule:nonzero;stroke:none;stroke-width:0.06994014"
     d="m 453.83676,174.0984 -30.64568,1.29809 -15.47005,58.8819 -12.77527,81.62856 98.63169,2.39824 -23.19844,-115.36487 -16.54225,-28.84192" />
  <path
     inkscape:connector-curvature="0"
     id="path8232"
     style="fill:#c1796b;fill-opacity:1;fill-rule:nonzero;stroke:none;stroke-width:0.06994014"
     d="m 605.8174,153.03312 -1.12673,-5.88406 3.0347,-4.3251 -0.5896,-1.10855 -1.3939,0.67072 1.49041,-4.31041 -1.29878,-3.46693 -4.75872,-1.27571 -4.6874,1.98281 -0.76585,4.85944 2.10381,5.45883 1.19388,8.12145 6.79818,-0.72249" />
  <path
     inkscape:connector-curvature="0"
     id="path8234"
     style="fill:#474ebb;fill-opacity:1;fill-rule:nonzero;stroke:none;stroke-width:0.06994014"
     d="m 606.12933,146.85881 -9.25867,7.86757 1.31488,40.40512 15.57216,10.84631 29.76094,-3.81313 -3.97051,-25.57152 -24.85813,4.78811 -8.56067,-34.52246" />
  <path
     inkscape:connector-curvature="0"
     id="path8236"
     style="fill:#3b455a;fill-opacity:1;fill-rule:nonzero;stroke:none;stroke-width:0.06994014"
     d="m 700.98216,428.47141 1.16381,5.33923 -9.22302,7.60327 -6.35756,-4.20704 4.02996,-6.47135 9.22301,-7.60334 1.1638,5.33923" />
  <path
     inkscape:connector-curvature="0"
     id="path8238"
     style="fill:#474ebb;fill-opacity:1;fill-rule:nonzero;stroke:none;stroke-width:0.06994014"
     d="m 668.72506,264.296 10.2924,23.7342 0.97076,66.77535 21.1632,71.82714 -9.84128,4.36342 -43.18524,-83.40069 -4.9147,-26.41569 -1.95342,-55.63389 27.46828,-1.24984" />
  <path
     inkscape:connector-curvature="0"
     id="path8240"
     style="fill:#474ebb;fill-opacity:1;fill-rule:nonzero;stroke:none;stroke-width:0.06994014"
     d="m 618.89341,269.61566 -0.80851,69.98071 13.18651,90.22992 h 10.14063 l 6.40442,-83.25619 13.87612,-83.25605 -42.79917,6.30161" />
  <path
     inkscape:connector-curvature="0"
     id="path8242"
     style="fill:#3a332d;fill-opacity:1;fill-rule:nonzero;stroke:none;stroke-width:0.06994014"
     d="m 641.35329,428.61898 v 5.48318 l -10.96452,5.48267 -5.4833,-5.48267 5.4833,-5.48318 h 10.96452" />
  <path
     inkscape:connector-curvature="0"
     id="path8244"
     style="fill:#474ebb;fill-opacity:1;fill-rule:nonzero;stroke:none;stroke-width:0.06994014"
     d="m 638.86272,174.85515 26.93535,-0.99805 c 0,0 16.11351,14.1384 24.44129,50.87866 8.47954,37.40959 -1.56597,91.2656 -1.56597,91.2656 0,0 -72.26496,-9.63146 -84.11422,-11.11978 l 18.07814,-73.86309 16.22541,-56.16334" />
  <path
     inkscape:connector-curvature="0"
     id="path8246"
     style="fill:#c1796b;fill-opacity:1;fill-rule:nonzero;stroke:none;stroke-width:0.06994014"
     d="m 648.51516,177.6066 c 3.14521,-0.30705 6.29111,-0.61478 9.43633,-0.92251 0.0343,-2.51995 -0.13359,-5.04339 -0.50148,-7.53675 2.62276,-0.91832 5.65397,-2.29615 6.11417,-5.03639 0.14478,-0.86307 -0.003,-1.74571 -0.15107,-2.60807 -0.61128,-3.56625 -1.22255,-7.1325 -1.83383,-10.69875 -0.21051,-1.23304 -0.43642,-2.50246 -1.10506,-3.56065 -1.17429,-1.85552 -3.45714,-2.66962 -5.62038,-3.048 -5.51898,-0.96516 -11.53733,0.22242 -15.82256,3.83202 -1.14073,0.96098 -2.17235,2.1164 -2.67661,3.52009 -0.77703,2.16395 -0.20143,4.55311 0.37977,6.77791 0.53644,2.05413 1.07218,4.10758 1.60863,6.16102 0.61687,2.36188 1.50791,5.04688 3.78166,5.93512 1.20787,0.4721 2.63394,0.33642 3.7264,1.03372 1.92687,1.22955 1.66319,4.09639 2.66403,6.15124" />
  <path
     inkscape:connector-curvature="0"
     id="path8248"
     style="fill:#3b455a;fill-opacity:1;fill-rule:nonzero;stroke:none;stroke-width:0.06994014"
     d="m 617.78416,141.9651 c -0.0615,-2.44441 0.28326,-4.9182 0.77144,-7.14788 0.83858,-3.83063 5.35811,-5.55186 9.27057,-5.82323 8.44946,-0.5868 16.60379,-4.41742 24.85532,-1.46104 4.71677,1.69045 11.05125,2.09611 15.31899,4.47896 1.78278,0.99455 3.20396,2.54792 4.31042,4.26286 3.83622,5.94211 3.846,14.12721 0.0251,20.07911 -0.85677,1.33446 -1.88209,2.55492 -2.95917,3.72012 -2.22969,2.41084 -4.8965,5.38959 -7.96058,6.28063 -0.0693,-2.74026 2.43811,-11.37577 0.33711,-13.62364 -3.33405,-3.56766 -10.88549,-2.33461 -15.02874,-1.46315 -4.51953,0.95048 -8.55018,4.14465 -13.03125,4.82237 -3.22354,0.48748 -7.33532,-1.09876 -10.07418,-2.76824 -4.29152,-2.61646 -5.7246,-6.93946 -5.83511,-11.35687" />
  <path
     inkscape:connector-curvature="0"
     id="path8250"
     style="fill:#ffffff;fill-opacity:1;fill-rule:nonzero;stroke:none;stroke-width:0.06994014"
     d="m 646.29177,178.1857 -28.31667,113.26597 -2.32132,14.85529 35.27991,4.64122 c 0,0 -1.3925,-54.23928 -0.9281,-61.47039 0.4644,-7.23182 5.69592,-22.87322 6.49884,-39.7267 0.4644,-9.74826 3.55995,-27.25777 1.3925,-32.9586 l -11.60516,1.39321" />
  <path
     inkscape:connector-curvature="0"
     id="path8274"
     style="fill:#efbfa5;fill-opacity:1;fill-rule:nonzero;stroke:none;stroke-width:0.06994014"
     d="m 751.56637,303.65273 39.77636,-14.62798 -8.19908,69.68136 4.75104,60.11776 0.41963,3.82363 -7.81511,0.20562 -18.2215,-56.27594 -9.27407,-57.05368 -1.43727,-5.87077" />
  <path
     inkscape:connector-curvature="0"
     id="path8276"
     style="fill:#3b455a;fill-opacity:1;fill-rule:nonzero;stroke:none;stroke-width:0.06994014"
     d="m 780.49921,422.85312 8.13754,-0.20562 2.07792,6.86679 -0.20492,0.0615 0.0518,0.005 -13.45368,7.97234 -6.39603,0.71059 -0.81411,-7.31063 1.72823,-1.26522 8.8733,-6.83462" />
  <path
     inkscape:connector-curvature="0"
     id="path8278"
     style="fill:#efbfa5;fill-opacity:1;fill-rule:nonzero;stroke:none;stroke-width:0.06994014"
     d="m 724.47086,304.8501 12.21784,122.10711 7.86547,1.15603 7.63817,-68.01951 13.71246,-64.1589 -41.43394,8.91527" />
  <path
     inkscape:connector-curvature="0"
     id="path8280"
     style="fill:#3b455a;fill-opacity:1;fill-rule:nonzero;stroke:none;stroke-width:0.06994014"
     d="m 736.42922,426.92713 -10.42877,5.91337 0.97707,4.92099 18.63414,-2.80887 -1.09666,-7.08968 -8.08578,-0.93581" />
  <path
     inkscape:connector-curvature="0"
     id="path8282"
     style="fill:#d34e4e;fill-opacity:1;fill-rule:nonzero;stroke:none;stroke-width:0.06994014"
     d="m 705.82202,334.81176 c -2.51645,-1.7471 -2.571,-4.7902 -2.5661,-7.83819 0.009,-5.72251 1.03791,-11.573 2.34929,-17.13394 2.49756,-10.43366 5.32944,-22.99911 6.57437,-36.51854 3.21865,-34.94071 14.2524,-58.38744 14.2524,-58.38744 l 3.56065,-9.49437 c 0.7078,-1.23444 1.44147,-2.4556 2.20801,-3.65857 4.4468,-6.97793 12.16819,-18.83629 20.42533,-20.77712 0.17275,-0.0406 0.3462,-0.0804 0.52035,-0.1189 8.68167,-1.90517 19.80775,-1.02113 27.65293,3.20046 1.48834,0.80082 2.813,1.86741 4.12718,2.92769 3.8369,3.09416 6.96533,4.76992 8.61942,9.48669 1.43657,4.0943 1.77018,8.56277 2.5619,12.80603 1.60863,8.62083 2.56821,17.34517 3.85301,26.01634 2.40804,16.26109 4.45378,32.57533 7.03108,48.81123 1.32537,8.35645 2.66122,16.72689 3.28789,25.17146 0.55392,7.46541 7.28916,15.04553 11.07362,21.736 1.31698,2.32761 -17.59694,8.36064 -19.29229,8.75511 -7.84589,1.82683 -16.19255,1.36034 -24.27972,1.3967 -17.72494,0.0811 -35.45197,-0.46649 -53.13773,-1.638 -5.87707,-0.38957 -13.11867,-1.5114 -18.33411,-4.4377 -0.17205,-0.0965 -0.33431,-0.19793 -0.48748,-0.30494" />
  <path
     inkscape:connector-curvature="0"
     id="path8284"
     style="fill:#ffffff;fill-opacity:1;fill-rule:nonzero;stroke:none;stroke-width:0.06994014"
     d="m 762.88198,179.93001 c 0,0 9.98466,-2.6955 11.36318,19.83222 1.37922,22.52773 3.67815,79.53524 6.8968,95.16686 3.21725,15.63163 8.04521,46.29059 8.04521,46.29059 l -30.57293,1.06309 -34.9407,-2.75844 c 0,0 11.95277,-22.06751 13.7922,-37.69913 1.83872,-15.63093 -1.37922,-74.47857 6.43659,-96.54608 7.81511,-22.06752 9.45521,-24.95255 18.97965,-25.34911" />
  <path
     inkscape:connector-curvature="0"
     id="path8286"
     style="fill:#d34e4e;fill-opacity:1;fill-rule:nonzero;stroke:none;stroke-width:0.06994014"
     d="m 717.69716,230.10507 -15.94496,-2.4591 v -13.73554 l 38.47198,-29.31961 12.41368,-3.67815 -5.97709,16.09112 -28.96361,33.10128" />
  <path
     inkscape:connector-curvature="0"
     id="path8288"
     style="fill:#3b455a;fill-opacity:1;fill-rule:nonzero;stroke:none;stroke-width:0.06994014"
     d="m 748.9569,162.08199 c -1.5107,4.53561 0.67563,9.37267 2.59478,13.50614 1.70235,3.66555 2.29334,6.07849 -2.02616,7.06744 -2.43532,0.55743 -6.75482,1.59744 -8.89009,-0.26717 -1.61632,-1.41209 -0.7078,-5.77286 0.0783,-7.50457 0.60079,-1.32327 2.19122,-1.9947 2.75564,-3.33335 0.23291,-0.55113 0.26647,-1.16451 0.27557,-1.76319 0.0336,-2.44581 -0.30494,-4.89581 -1.00015,-7.2409 -0.47209,-1.59254 -1.11205,-3.15641 -1.25403,-4.81119 -0.20701,-2.39894 1.48973,-5.19446 2.38217,-7.39897 1.65828,-4.10199 7.43184,-9.60347 12.2661,-6.38344 1.10016,0.73298 1.7415,1.97231 2.27655,3.18158 0.32033,0.72178 0.62457,1.47504 0.63435,2.26466 0.0364,3.14871 -2.83816,3.68096 -4.82376,5.17908 -2.44931,1.84851 -4.30482,4.60905 -5.2693,7.50388" />
  <path
     inkscape:connector-curvature="0"
     id="path8290"
     style="fill:#efbfa5;fill-opacity:1;fill-rule:nonzero;stroke:none;stroke-width:0.06994014"
     d="m 758.15193,179.78174 c -4.19361,-0.98826 -7.4717,-4.50905 -9.04746,-8.51802 -1.57504,-4.00966 -1.65757,-8.45576 -1.22185,-12.74169 1.44987,-14.2615 19.19018,-13.34598 25.19804,-2.41504 5.23642,9.52585 -2.73746,26.54649 -14.92873,23.67475" />
  <path
     inkscape:connector-curvature="0"
     id="path8292"
     style="fill:#efbfa5;fill-opacity:1;fill-rule:nonzero;stroke:none;stroke-width:0.06994014"
     d="m 758.15543,178.24445 c 0.0707,1.62471 0.14128,3.24942 0.21122,4.87343 0.0108,0.23849 0.0301,0.49937 0.19653,0.66933 0.18954,0.19443 0.49448,0.19793 0.76585,0.18883 1.32397,-0.0462 2.64793,-0.0924 3.9719,-0.13777 0.65604,-0.0223 1.33866,-0.0524 1.91706,-0.363 1.26662,-0.67912 1.52819,-2.39545 1.32607,-3.81803 -0.20213,-1.42328 -0.7127,-2.85706 -0.41055,-4.26286 -2.73466,1.34706 -5.33014,-1.69604 -8.0648,-0.3497 l 0.0867,3.19977" />
  <path
     inkscape:connector-curvature="0"
     id="path8294"
     style="fill:#3b455a;fill-opacity:1;fill-rule:nonzero;stroke:none;stroke-width:0.06994014"
     d="m 763.87724,133.79678 c 4.65801,1.58275 7.64586,6.29462 12.19196,8.17601 2.60667,1.07918 5.69173,1.21626 7.81862,3.07037 4.76711,4.15444 0.93579,12.87248 4.85174,17.83684 0.8148,1.03231 1.91217,1.81285 2.72976,2.84237 1.7639,2.2206 1.994,5.2511 2.15136,8.08298 0.0357,0.63646 0.042,1.33096 -0.0679,1.97161 -0.61268,6.5387 -10.10495,6.12326 -13.87543,5.70431 -4.13766,-0.4595 -2.75844,-2.75843 -2.75844,-2.75843 l 0.14968,-0.18394 c 0.39726,-2.65493 -0.69451,-5.48611 -2.78012,-7.17726 -0.77424,-0.62736 -1.68906,-1.12744 -2.23529,-1.96112 -1.22466,-1.8709 -0.056,-4.35028 -0.235,-6.57997 -0.72598,-8.97822 -15.79388,-7.05416 -20.04695,-13.44599 -5.21474,-7.83889 3.30888,-18.56632 12.10594,-15.57778" />
  <path
     inkscape:connector-curvature="0"
     id="path8296"
     style="fill:#efbfa5;fill-opacity:1;fill-rule:nonzero;stroke:none;stroke-width:0.06994014"
     d="m 800.91823,121.49501 -5.76795,-8.07039 -3.55716,2.31502 2.72627,6.40163 -2.18983,0.31402 5.77706,6.30511 4.02225,-1.90728 -1.01064,-5.35811" />
  <path
     inkscape:connector-curvature="0"
     id="path8298"
     style="fill:#d34e4e;fill-opacity:1;fill-rule:nonzero;stroke:none;stroke-width:0.06994014"
     d="m 776.49933,190.36648 30.17428,-24.37205 -11.19882,-37.23403 11.12818,-4.53073 20.74775,49.09728 -30.21554,38.11879 -20.63585,-21.07926" />
  <path
     inkscape:connector-curvature="0"
     id="path8300"
     style="fill:#efbfa5;fill-opacity:1;fill-rule:nonzero;stroke:none;stroke-width:0.06994014"
     d="m 735.28011,232.39281 9.01179,-1.48973 -0.4693,-3.87957 -6.39672,-0.34621 0.62945,-1.93734 -7.55633,2.21501 -0.0573,4.09779 4.83846,1.34005" />
  <path
     inkscape:connector-curvature="0"
     id="path8302"
     style="fill:#d34e4e;fill-opacity:1;fill-rule:nonzero;stroke:none;stroke-width:0.06994014"
     d="m 710.79826,217.81658 -0.0468,0.78403 22.05491,6.74643 -0.52874,8.12635 -30.52538,-7.8291 9.04606,-7.82771" />
  <path
     inkscape:connector-curvature="0"
     id="path8304"
     style="fill:#d34e4e;fill-opacity:1;fill-rule:nonzero;stroke:none;stroke-width:0.06994014"
     d="m 660.59662,442.23269 h -87.47764 c -6.90939,0 -12.51089,-5.6015 -12.51089,-12.50998 v -59.30512 c 0,-6.91008 5.6015,-12.51089 12.51089,-12.51089 h 87.47764 c 6.91009,0 12.5109,5.60081 12.5109,12.51089 v 59.30512 c 0,6.90848 -5.60151,12.50998 -12.5109,12.50998" />
  <path
     inkscape:connector-curvature="0"
     id="path8306"
     style="fill:#d34e4e;fill-opacity:1;fill-rule:nonzero;stroke:none;stroke-width:0.06994014"
     d="m 641.49386,353.32143 c 0,-5.38959 0,-10.77988 0,-16.16947 0,-1.46105 -1.39041,-2.70249 -3.03329,-2.70249 -12.77667,0 -25.55194,0 -38.3286,0 -1.82754,0 -3.65508,0 -5.48261,0 -1.64009,0 -3.03331,1.23794 -3.03331,2.70249 0,5.377 0,10.754 0,16.131 -2.4521,0.0707 -4.41882,2.11079 -4.41882,4.62374 h 14.86298 c 0,-2.49826 -1.94503,-4.52933 -4.37754,-4.62235 0,-4.47616 0,-8.95303 0,-13.42991 11.76462,0 23.53066,0 35.29528,0 0.81621,0 1.63241,0 2.44931,0 0,4.47408 0,8.94745 0,13.42153 h -0.30424 c -2.51295,0 -4.54961,2.07301 -4.54961,4.63073 h 14.86298 c 0,-2.3479 -1.71773,-4.28244 -3.94253,-4.58527" />
  <path
     inkscape:connector-curvature="0"
     id="path8308"
     style="fill:#ffffff;fill-opacity:1;fill-rule:nonzero;stroke:none;stroke-width:0.06994014"
     d="m 642.93114,391.59337 c -6.09109,0 -12.18218,0 -18.27396,0 -0.57002,0 -1.14003,0 -1.71144,0 0,-4.51464 0,-9.02857 0,-13.54321 0,-2.26536 0,-4.53002 0,-6.79469 0,-0.75465 -0.62806,-1.396 -1.37153,-1.396 -3.78586,0 -7.57171,0 -11.35757,0 -0.74137,0 -1.37153,0.63925 -1.37153,1.396 0,6.1981 0,12.3969 0,18.59569 0,0.58121 0,1.1617 0,1.74221 -4.4363,0 -8.87261,0 -13.30821,0 -2.2262,0 -4.45169,0 -6.67719,0 -0.74206,0 -1.37223,0.63925 -1.37223,1.396 0,3.85231 0,7.70531 0,11.55691 0,0.42874 0.15737,0.75326 0.39377,0.97777 0.22101,0.25109 0.54693,0.41895 0.97846,0.41895 6.09109,0 12.18287,0 18.27396,0 0.57002,0 1.14073,0 1.71144,0 0,4.51462 0,9.02856 0,13.5432 0,2.26466 0,4.52933 0,6.79469 0,0.75465 0.62806,1.39601 1.37153,1.39601 3.78586,0 7.57171,0 11.35757,0 0.42035,0 0.73997,-0.15948 0.96028,-0.40146 0.24759,-0.22381 0.41125,-0.55463 0.41125,-0.99455 0,-6.1988 0,-12.39759 0,-18.59639 0,-0.5805 0,-1.16101 0,-1.7415 4.4363,0 8.87261,0 13.30821,0 2.2262,0 4.45239,0 6.67719,0 0.74206,0 1.37223,-0.63996 1.37223,-1.39672 0,-3.8516 0,-7.7046 0,-11.55691 0,-0.75464 -0.62806,-1.396 -1.37223,-1.396" />
  <path
     inkscape:connector-curvature="0"
     id="path8310"
     style="fill:#3b455a;fill-opacity:1;fill-rule:nonzero;stroke:none;stroke-width:0.06994014"
     d="m 414.67867,216.63039 c 3.08646,14.23004 17.08288,23.2719 31.26045,20.19522 14.17827,-3.07736 23.16838,-17.10735 20.08191,-31.33807 -3.08716,-14.23073 -17.08288,-23.27259 -31.26115,-20.19522 -14.17827,3.07736 -23.16836,17.10736 -20.08121,31.33807" />
  <path
     inkscape:connector-curvature="0"
     id="path8312"
     style="fill:#ccd2d9;fill-opacity:1;fill-rule:nonzero;stroke:none;stroke-width:0.06994014"
     d="m 422.7036,214.88819 c 2.12269,9.78113 11.74226,15.99671 21.48771,13.88172 9.74546,-2.11499 15.92538,-11.75903 13.80339,-21.54086 -2.12198,-9.78113 -11.74225,-15.99602 -21.48701,-13.88103 -9.74546,2.115 -15.92608,11.75904 -13.80409,21.54017" />
  <path
     inkscape:connector-curvature="0"
     id="path8314"
     style="fill:#ccd2d9;fill-opacity:1;fill-rule:nonzero;stroke:none;stroke-width:0.06994014"
     d="m 457.05401,304.67316 6.87931,-1.49393 -17.81516,-82.12861 -6.87861,1.49252 17.81446,82.13002" />
  <path
     inkscape:connector-curvature="0"
     id="path8316"
     style="fill:#3b455a;fill-opacity:1;fill-rule:nonzero;stroke:none;stroke-width:0.06994014"
     d="m 434.58713,212.97323 c 0.72669,3.34804 4.01946,5.47561 7.35561,4.75173 3.33614,-0.72388 5.45113,-4.02575 4.72516,-7.37379 -0.72668,-3.34873 -4.01947,-5.47561 -7.35561,-4.75174 -3.33544,0.72388 -5.45114,4.02507 -4.72516,7.3738" />
  <path
     inkscape:connector-curvature="0"
     id="path8318"
     style="fill:#cd993b;fill-opacity:1;fill-rule:nonzero;stroke:none;stroke-width:0.06994014"
     d="m 438.01071,237.3201 c -0.67353,-0.0476 -1.32677,-0.1231 -1.8786,-0.2399 0.62037,0.10208 1.24773,0.18255 1.8786,0.2399" />
  <path
     inkscape:connector-curvature="0"
     id="path8320"
     style="fill:#333c4e;fill-opacity:1;fill-rule:nonzero;stroke:none;stroke-width:0.06994014"
     d="m 440.30124,237.39214 c -0.70779,0 -1.51281,-0.0175 -2.29053,-0.0721 -0.63087,-0.0573 -1.25823,-0.13778 -1.8786,-0.23989 -0.002,-7e-4 -0.004,-7e-4 -0.005,-0.001 l 0.3609,-8.32008 c 1.25682,0.27836 2.55351,0.42384 3.87118,0.42454 0.10628,0 0.21331,-10e-4 0.32032,-0.003 l 1.77019,8.16061 c 0,0 -0.92881,0.0518 -2.14786,0.0518" />
  <path
     inkscape:connector-curvature="0"
     id="path8322"
     style="fill:#b2b7bd;fill-opacity:1;fill-rule:nonzero;stroke:none;stroke-width:0.06994014"
     d="m 440.35859,229.18326 c -1.31767,-7e-4 -2.61435,-0.14618 -3.87118,-0.42454 l 0.52315,-12.07166 c 0.3427,0.24827 0.70989,0.46159 1.09596,0.63505 l 2.5724,11.85765 c -0.10704,0.002 -0.21402,0.003 -0.32033,0.003" />
  <path
     inkscape:connector-curvature="0"
     id="path8324"
     style="fill:#333c4e;fill-opacity:1;fill-rule:nonzero;stroke:none;stroke-width:0.06994014"
     d="m 438.10652,217.32211 c -0.38607,-0.17346 -0.75326,-0.38678 -1.09596,-0.63505 v 0 l 1.09596,0.63435 v 7e-4" />
  <path
     inkscape:connector-curvature="0"
     id="path8326"
     style="fill:#7fc5a3;fill-opacity:1;fill-rule:nonzero;stroke:none;stroke-width:0.06994014"
     d="m 535.33032,355.2266 c 0.76025,-0.19654 0.28326,-0.0657 0,0 m 42.21448,-74.4387 c -1.52749,0.27206 -2.83748,1.58973 -4.53213,1.42748 0.18884,1.20506 0.0699,0.41124 -0.0671,-0.38258 -0.13708,-0.79662 -0.29305,-1.59393 -0.17485,-0.37138 0.31473,3.262 0.51476,6.538 0.59239,9.82169 0.0434,1.86112 0.0482,3.72431 0.009,5.59032 -0.006,0.32172 -0.0735,2.06953 -0.0161,0.74906 -0.0209,0.49168 -0.0392,0.98266 -0.0629,1.47434 -0.0462,0.94769 -0.10489,1.89607 -0.17555,2.84446 -0.30705,4.12717 -0.84488,8.25924 -1.68626,12.37242 -0.42733,2.0898 -0.9337,4.17402 -1.53309,6.24775 -0.31403,1.08616 -0.65324,2.16954 -1.02043,3.24872 -0.15666,0.46091 -0.32312,0.91971 -0.48608,1.38062 -0.0301,0.0846 -0.0825,0.22661 -0.1245,0.33641 -0.0336,0.0868 -0.0665,0.17345 -0.10143,0.26018 -1.60583,3.97679 -3.54946,7.88085 -6.10857,11.60027 -0.31193,0.45461 -0.63786,0.90293 -0.96448,1.35194 0.33922,-0.47139 -0.52036,0.66864 -0.6938,0.88264 -0.63156,0.77914 -1.2918,1.54429 -1.98141,2.29474 -1.43796,1.56526 -3.01511,3.03611 -4.69158,4.45309 0.31822,-0.27906 -1.00854,0.78193 -1.25542,0.96308 -0.4798,0.3511 -0.96798,0.69451 -1.46596,1.03091 -0.90082,0.60918 -1.83033,1.19318 -2.78501,1.74921 -0.64346,0.37488 -1.29809,0.73716 -1.96322,1.08687 -0.2231,0.1168 -0.45251,0.22801 -0.67352,0.3476 l -0.0651,0.035 -0.0679,0.0294 c -1.08058,0.47278 -2.14087,0.96237 -3.24593,1.396 -1.38831,0.54553 -2.80809,1.03792 -4.24955,1.47853 -0.60639,0.18604 -1.21627,0.3623 -1.83034,0.52945 -0.27417,0.0749 -0.55043,0.14617 -0.826,0.21822 l -0.0538,0.0119 c -2.95707,0.61618 -5.88686,1.18269 -8.90198,1.48553 -0.85956,0.086 -1.71983,0.14477 -2.58009,0.20632 l -0.16717,0.01 c 0.0112,-7e-4 -0.0315,0.002 -0.10207,0.005 -0.19233,0.01 -0.38538,0.0189 -0.577,0.0279 0.13917,-0.006 0.25247,-0.0126 0.3448,-0.0175 -0.1224,0.005 -0.25039,0.009 -0.33711,0.0108 -1.29529,0.009 -2.585,0.009 -3.87259,-0.0539 -1.37921,-0.0671 -2.75005,-0.18674 -4.10549,-0.35879 -0.57141,-0.0721 -1.13513,-0.16646 -1.70444,-0.2455 l -0.0378,-0.004 -0.086,-0.0203 c -0.24129,-0.0546 -0.49098,-0.0965 -0.73437,-0.14688 -2.41783,-0.50286 -4.76012,-1.17919 -6.99751,-2.00728 -0.33572,-0.1252 -2.40805,-1.00643 -1.10576,-0.42104 -0.47979,-0.21611 -0.96657,-0.42454 -1.44076,-0.64694 -1.00784,-0.4714 -1.9898,-0.97288 -2.94518,-1.50092 -1.93804,-1.07008 -3.75089,-2.25347 -5.4882,-3.5047 -0.1357,-0.10068 -0.31613,-0.235 -0.39936,-0.30144 -0.26578,-0.21192 -0.53644,-0.42034 -0.80082,-0.63366 -0.39796,-0.32102 -0.79102,-0.64695 -1.17709,-0.97707 -0.8246,-0.7015 -1.62261,-1.41978 -2.39755,-2.15485 -1.65619,-1.57156 -3.20395,-3.21305 -4.65732,-4.9056 -0.77353,-0.90083 -1.5198,-1.81565 -2.24227,-2.74305 -0.20353,-0.26089 -0.9456,-1.26103 -0.52945,-0.69032 -0.29725,-0.40634 -0.59449,-0.8127 -0.88475,-1.22185 -5.08464,-7.16746 -8.91807,-14.90075 -11.99403,-22.80328 -0.7064,-1.81495 -1.37153,-3.64108 -1.99819,-5.47771 -0.16436,-0.48399 -0.32452,-0.96868 -0.48609,-1.45266 l -0.0398,-0.1175 c -0.0175,-0.0566 -0.0398,-0.12869 -0.0693,-0.22242 -0.26227,-0.83648 -0.52386,-1.67366 -0.77494,-2.51294 -0.86446,-2.90042 -1.64009,-5.82112 -2.32411,-8.76 -0.62807,-2.7018 -1.22186,-5.42246 -1.61212,-8.16551 -0.76654,-5.40148 -11.6849,-3.84952 -10.91836,1.54288 0.0273,0.19092 0.0623,0.38047 0.0874,0.57141 0.55253,4.12296 1.60933,8.21376 2.68571,12.24022 2.05414,7.68572 4.64962,15.27983 7.99696,22.62074 7.30455,16.01769 18.83348,32.9537 39.36371,40.37715 21.50029,7.77455 49.7834,0.91761 64.81074,-14.53707 14.19854,-14.6021 17.66688,-33.68247 18.20332,-50.81221 0.25808,-8.25503 1.11764,-8.60194 -0.28256,-16.73807 -1.15051,0.49168 -2.51714,0.48118 -3.8558,0.47139 -0.89104,-0.006 -1.76948,-0.014 -2.5647,0.1273" />
  <path
     inkscape:connector-curvature="0"
     id="path8328"
     style="fill:#ccd2d9;fill-opacity:1;fill-rule:nonzero;stroke:none;stroke-width:0.06994014"
     d="m 579.47095,114.09465 c 7.86057,-1.31697 15.72114,-2.63465 23.58242,-3.95162 1.67716,-0.28116 3.34173,0.90712 3.62429,2.59407 3.00883,17.96274 6.01765,35.92616 9.02578,53.8889 0.42454,2.53392 0.84908,5.06785 1.27361,7.60179 0.67143,4.00826 -5.53366,5.05457 -6.20579,1.04001 -3.00953,-17.96273 -6.01765,-35.92616 -9.02577,-53.88888 -0.25109,-1.49533 -0.50078,-2.99135 -0.75187,-4.48736 -6.82616,1.14421 -13.65301,2.28773 -20.47987,3.43196 -3.99357,0.66932 -5.04338,-5.55885 -1.0428,-6.22887" />
  <path
     inkscape:connector-curvature="0"
     id="path8330"
     style="fill:#3b455a;fill-opacity:1;fill-rule:nonzero;stroke:none;stroke-width:0.06994014"
     d="m 572.08597,124.73534 7.16047,-1.20017 -2.08631,-12.45844 -7.16117,1.20087 c -2.89973,0.48539 -4.85735,3.22984 -4.37266,6.12815 l 0.32871,1.95973 c 0.48539,2.89902 3.23054,4.85595 6.13096,4.36986" />
  <path
     inkscape:connector-curvature="0"
     id="path8332"
     style="fill:#ccd2d9;fill-opacity:1;fill-rule:nonzero;stroke:none;stroke-width:0.06994014"
     d="m 578.44283,124.6661 6.06871,-1.01693 c 3.35153,-0.56162 5.61269,-3.73201 5.05247,-7.08214 l -0.37977,-2.26397 c -0.56093,-3.35012 -3.73341,-5.61128 -7.08424,-5.04967 l -6.06731,1.01693 2.41014,14.39578" />
  <path
     inkscape:connector-curvature="0"
     id="path8334"
     style="fill:#ccd2d9;fill-opacity:1;fill-rule:nonzero;stroke:none;stroke-width:0.06994014"
     d="m 517.89215,123.98628 c -7.86058,1.31697 -15.72185,2.63464 -23.58313,3.95231 -1.67716,0.28117 -2.86334,1.94644 -2.58148,3.6341 3.00952,17.96342 6.01694,35.92615 9.02577,53.88888 0.42454,2.53393 0.84907,5.06787 1.27291,7.6018 0.67143,4.00826 6.87791,2.97455 6.20649,-1.04001 -3.00882,-17.96273 -6.01695,-35.92616 -9.02508,-53.88888 -0.25108,-1.49533 -0.50217,-2.99135 -0.75186,-4.48736 6.82686,-1.14353 13.65302,-2.28775 20.47988,-3.43127 3.99288,-0.66933 2.95638,-6.8996 -1.0435,-6.22957" />
  <path
     inkscape:connector-curvature="0"
     id="path8336"
     style="fill:#3b455a;fill-opacity:1;fill-rule:nonzero;stroke:none;stroke-width:0.06994014"
     d="m 528.3412,131.63843 -7.16118,1.20018 -2.08631,-12.45774 7.16047,-1.20017 c 2.90043,-0.48609 5.64487,1.47014 6.13096,4.36986 l 0.32802,1.95972 c 0.48608,2.89902 -1.47224,5.64207 -4.37196,6.12815" />
  <path
     inkscape:connector-curvature="0"
     id="path8338"
     style="fill:#ccd2d9;fill-opacity:1;fill-rule:nonzero;stroke:none;stroke-width:0.06994014"
     d="m 522.30816,133.64571 -6.06731,1.01693 c -3.35153,0.56163 -6.52401,-1.69884 -7.08493,-5.04967 l -0.37907,-2.26467 c -0.56163,-3.34943 1.70023,-6.51982 5.05178,-7.08143 l 6.0687,-1.01693 2.41083,14.39577" />
  <path
     inkscape:connector-curvature="0"
     id="path8340"
     style="fill:#dedede;fill-opacity:1;fill-rule:nonzero;stroke:none;stroke-width:0.06994014"
     d="m 573.31971,289.79828 c -0.16016,-1.65548 -0.28256,-2.71647 -0.28256,-2.71647 l 0.15737,-0.0462 c 0.051,0.92042 0.093,1.84083 0.12519,2.76264" />
  <path
     inkscape:connector-curvature="0"
     id="path8342"
     style="fill:#6fac8e;fill-opacity:1;fill-rule:nonzero;stroke:none;stroke-width:0.06994014"
     d="m 573.78411,295.42287 c -0.14337,-2.13107 -0.31962,-4.12297 -0.4644,-5.62459 -0.0322,-0.92181 -0.0741,-1.84222 -0.12519,-2.76264 l 10.36723,-3.02909 0.72878,4.64682 -10.50642,6.7695" />
  <path
     inkscape:connector-curvature="0"
     id="path8344"
     style="fill:#7fc5a3;fill-opacity:1;fill-rule:nonzero;stroke:none;stroke-width:0.06994014"
     d="m 619.20884,174.35298 c 2.55981,11.20021 3.70962,22.86483 4.09989,34.32313 0.69101,20.3218 -1.17779,42.91457 -13.21869,60.02823 -12.74309,18.111 -38.26634,25.8156 -58.56578,16.25759 -19.38391,-9.12579 -31.15134,-29.40355 -38.97274,-48.52658 -3.58514,-8.7642 -6.49605,-17.81795 -8.91597,-26.97172 -1.26662,-4.79439 -2.52134,-9.66642 -3.31377,-14.56923 -0.0371,-0.22661 -0.0825,-0.45181 -0.1203,-0.67842 -1.07707,-6.41281 8.85092,-8.08718 9.9294,-1.66387 0.54833,3.26201 1.28131,6.49954 2.04575,9.71608 0.8323,3.49841 1.74641,6.97723 2.74236,10.43297 0.28816,1.00014 0.58679,1.9975 0.88544,2.99484 0.39586,1.32047 -0.2343,-0.72458 0.12309,0.40426 0.18324,0.577 0.36369,1.1554 0.54834,1.73241 0.7036,2.18842 1.44006,4.36636 2.2157,6.53101 3.37391,9.42723 7.43184,18.66493 12.60042,27.24938 0.32941,0.54694 0.66513,1.08827 1.00154,1.63031 -0.63016,-1.01834 0.21262,0.32592 0.43083,0.66163 0.72808,1.11135 1.47714,2.20872 2.24998,3.28929 1.45335,2.03106 2.98994,4.00337 4.62094,5.89385 0.76235,0.88404 1.54638,1.75061 2.35209,2.59548 0.37908,0.39656 0.76164,0.78893 1.14981,1.17639 0.25739,0.25739 0.52036,0.50986 0.77914,0.76515 0.21121,0.20772 1.06099,0.97566 0.1119,0.1154 1.76879,1.60443 3.60751,3.12212 5.56304,4.49226 0.91482,0.64205 1.85272,1.25193 2.8109,1.82613 0.45251,0.27207 0.91341,0.52665 1.36942,0.79033 -1.23654,-0.7148 0.72808,0.36368 1.04561,0.51685 2.11429,1.01693 4.31321,1.85552 6.57088,2.48987 0.2266,0.0643 0.4595,0.11681 0.68471,0.18535 1.1701,0.35529 -1.08897,-0.20004 0.1154,0.0315 0.52875,0.10208 1.0533,0.22241 1.58415,0.31753 1.25682,0.22521 2.52483,0.38746 3.79845,0.48888 1.18758,0.0937 2.37237,0.11331 3.56274,0.12309 0.31264,0.001 1.22256,-0.0553 -0.006,0.009 0.25737,-0.0133 0.51685,-0.0195 0.77424,-0.0392 0.78822,-0.0595 1.57295,-0.1161 2.35768,-0.20493 2.75005,-0.31402 5.40498,-0.94139 8.07948,-1.62751 0.24059,-0.0609 0.95119,-0.30633 -0.14338,0.051 0.31264,-0.10208 0.62527,-0.20353 0.9372,-0.31053 0.55253,-0.18884 1.10086,-0.38818 1.64499,-0.59939 1.2939,-0.50078 2.56471,-1.06449 3.80405,-1.68976 0.98616,-0.49797 1.92615,-1.06308 2.88643,-1.60722 1.07917,-0.61198 -0.88964,0.63995 0.1175,-0.0748 0.19514,-0.13918 0.39866,-0.26647 0.5952,-0.40215 0.58819,-0.40426 1.1652,-0.8239 1.73031,-1.25823 0.83928,-0.64624 1.65199,-1.32537 2.43811,-2.03456 0.43433,-0.39166 0.86026,-0.79172 1.27641,-1.20157 0.25038,-0.24619 1.77438,-1.89608 0.8197,-0.8162 1.54497,-1.74921 2.98434,-3.57184 4.27264,-5.52038 0.5826,-0.87985 1.13513,-1.77858 1.66178,-2.6934 0.16436,-0.28465 1.0519,-1.96042 0.41404,-0.71968 0.32453,-0.63226 0.64905,-1.26452 0.95679,-1.90586 2.094,-4.37547 3.61101,-8.97962 4.81188,-13.6754 0.0609,-0.23849 0.1161,-0.47839 0.17415,-0.71828 -0.28535,1.17569 -0.0713,0.30912 -0.006,0.0133 0.11679,-0.54343 0.23849,-1.08617 0.3511,-1.63101 0.26227,-1.275 0.49937,-2.55491 0.71269,-3.83971 0.40705,-2.4521 0.72807,-4.91819 0.97706,-7.39197 0.48888,-4.86924 0.698,-9.76504 0.69451,-14.65806 -7e-4,-1.12463 -0.0126,-2.24927 -0.0357,-3.37391 -0.0119,-0.58331 -0.0301,-1.16591 -0.0434,-1.74921 0.0385,1.56737 -0.0217,-0.50636 -0.0371,-0.88823 -0.0938,-2.21361 -0.22591,-4.42582 -0.39586,-6.63522 -0.29724,-3.89917 -0.70779,-7.78994 -1.22325,-11.66603 -0.60149,-4.52581 -1.43797,-8.99009 -2.26745,-13.47536 -0.0398,-0.21822 -0.093,-0.43433 -0.14269,-0.65114 -0.60777,-2.66333 1.56107,-5.38469 4.12997,-5.81482 2.81998,-0.4728 5.18956,1.47992 5.79944,4.15094" />
  <path
     inkscape:connector-curvature="0"
     id="path8346"
     style="fill:#a0a2a5;fill-opacity:1;fill-rule:nonzero;stroke:none;stroke-width:0.06994014"
     d="m 527.84043,367.18705 -0.009,-0.0378 c 0.30564,-0.0797 0.45532,-0.1168 0.4693,-0.1196 h 7e-4 l 0.0181,-0.003 0.004,0.0182 -0.0161,0.0209 v 0.002 l -0.014,0.003 c -0.0468,0.0181 -0.16436,0.049 -0.45321,0.1161" />
  <path
     inkscape:connector-curvature="0"
     id="path8348"
     style="fill:#a0a2a5;fill-opacity:1;fill-rule:nonzero;stroke:none;stroke-width:0.06994014"
     d="m 565.48362,333.36261 -0.037,-0.014 0.0161,-0.0378 0.035,0.014 -0.014,0.0378" />
  <path
     inkscape:connector-curvature="0"
     id="path8350"
     style="fill:#a0a2a5;fill-opacity:1;fill-rule:nonzero;stroke:none;stroke-width:0.06994014"
     d="m 569.85768,268.92045 -0.003,-0.0384 c 0.0938,-0.01 0.15316,-0.014 0.17485,-0.0147 l 0.002,0.0392 -0.17345,0.014" />
  <path
     inkscape:connector-curvature="0"
     id="path8352"
     style="fill:#a0a2a5;fill-opacity:1;fill-rule:nonzero;stroke:none;stroke-width:0.06994014"
     d="m 579.72203,271.17322 -0.0112,-0.037 c 0.0741,-0.0245 0.31822,-0.10283 0.33222,-0.10564 l 0.0189,-0.003 0.004,0.0182 -0.0161,0.0217 v 0.001 l -0.006,0.002 c -0.0343,0.0161 -0.11889,0.0434 -0.32172,0.10208" />
  <path
     inkscape:connector-curvature="0"
     id="path8354"
     style="fill:#a0a2a5;fill-opacity:1;fill-rule:nonzero;stroke:none;stroke-width:0.06994014"
     d="m 604.69696,240.48419 v 0 l -0.0378,-0.009 10e-4,-0.005 0.003,-0.0126 c 0.0133,-0.0532 0.0308,-0.12868 0.0566,-0.2322 l 0.009,-0.0378 0.035,-0.14478 0.002,-0.008 0.0385,0.009 c -0.0181,0.0727 -0.0329,0.13568 -0.0462,0.19093 -0.0203,0.0832 -0.0398,0.16646 -0.0609,0.24969" />
  <path
     inkscape:connector-curvature="0"
     id="path8356"
     style="fill:#a0a2a5;fill-opacity:1;fill-rule:nonzero;stroke:none;stroke-width:0.06994014"
     d="m 604.67598,240.57301 -0.0385,-0.008 0.008,-0.0329 v -7e-4 l 0.0385,0.01 -0.008,0.0315" />
  <path
     inkscape:connector-curvature="0"
     id="path8358"
     style="fill:#a0a2a5;fill-opacity:1;fill-rule:nonzero;stroke:none;stroke-width:0.06994014"
     d="m 570.00734,272.8336 -10e-4,-0.0384 0.0251,-0.001 c 0.16716,-0.008 0.2364,-0.0112 0.24689,-0.0112 l 10e-4,0.0392 -0.0839,0.004 c -0.0504,0.002 -0.1175,0.005 -0.18744,0.008 h -7e-4" />
  <path
     inkscape:connector-curvature="0"
     id="path8400"
     style="fill:#e0e0e0;fill-opacity:1;fill-rule:nonzero;stroke:none;stroke-width:0.06994014"
     d="m 756.64473,292.84348 -49.37356,11.98004 c -18.25927,4.43071 -36.61156,-6.60515 -40.99192,-24.649 v -7e-4 c -4.37965,-18.04386 6.87163,-36.26257 25.1316,-40.69328 l 49.24975,-11.95067 15.98413,65.31361" />
  <path
     inkscape:connector-curvature="0"
     id="path8402"
     style="fill:#3b455a;fill-opacity:1;fill-rule:nonzero;stroke:none;stroke-width:0.06994014"
     d="m 758.38833,292.42034 55.5129,-13.58448 c 16.77934,-4.07121 27.07942,-20.97434 23.0075,-37.75228 l -1.11344,-4.58668 c -4.07191,-16.77655 -20.97295,-27.07663 -37.7495,-23.00541 l -55.51778,13.58517 15.86032,65.34368" />
  <path
     inkscape:connector-curvature="0"
     id="path8404"
     style="fill:#3b455a;fill-opacity:1;fill-rule:nonzero;stroke:none;stroke-width:0.06994014"
     d="m 729.26735,259.24143 c -4.18241,1.01484 -8.36344,2.02897 -12.54586,3.0438 -0.39096,0.0951 -0.78333,0.19023 -1.17429,0.28466 -0.73018,-3.00883 -1.46106,-6.01835 -2.19123,-9.02788 -0.36719,-1.51001 -0.73368,-3.02001 -1.10015,-4.53002 -0.1217,-0.50287 -0.65745,-0.82599 -1.16731,-0.7022 -2.59898,0.63086 -5.19795,1.26102 -7.79693,1.89188 -0.50916,0.12379 -0.83858,0.65464 -0.71548,1.1589 1.00224,4.13277 2.00588,8.26484 3.00812,12.3976 0.0944,0.38677 0.18814,0.77423 0.28256,1.16101 -3.04589,0.73856 -6.09109,1.47783 -9.13628,2.2171 -1.52749,0.37068 -3.05639,0.74136 -4.58388,1.11275 -0.50916,0.12309 -0.83858,0.65464 -0.71619,1.1589 0.62387,2.56821 1.24634,5.13641 1.8702,7.70462 0.0699,0.28535 0.22941,0.47559 0.42874,0.58539 0.19233,0.13148 0.44271,0.18884 0.73927,0.1168 4.18102,-1.01483 8.36344,-2.02896 12.54446,-3.0438 0.39236,-0.0951 0.78332,-0.19024 1.17569,-0.28535 0.73018,3.00952 1.46105,6.01905 2.19123,9.02857 0.36649,1.51001 0.73297,3.02002 1.09946,4.52933 0.12239,0.50357 0.65744,0.82669 1.168,0.70289 2.59898,-0.63085 5.19795,-1.26172 7.79623,-1.89188 0.28885,-0.0707 0.48258,-0.2294 0.59449,-0.42733 0.13358,-0.19094 0.19233,-0.43923 0.12169,-0.73228 -1.00363,-4.13206 -2.00588,-8.26482 -3.00952,-12.39689 -0.0938,-0.38676 -0.18744,-0.77424 -0.28116,-1.1617 3.04519,-0.73857 6.09039,-1.47713 9.13559,-2.2164 1.52818,-0.37069 3.05567,-0.74136 4.58387,-1.11275 0.50986,-0.1231 0.83858,-0.65464 0.71619,-1.15891 -0.62317,-2.5682 -1.24704,-5.1371 -1.8702,-7.70461 -0.1217,-0.50287 -0.65744,-0.82599 -1.16731,-0.7022" />
  <path
     inkscape:connector-curvature="0"
     id="path8406"
     style="fill:#c1796b;fill-opacity:1;fill-rule:nonzero;stroke:none;stroke-width:0.06994014"
     d="m 619.98937,237.93906 -6.3121,1.99469 -5.1371,-2.77312 -1.14003,0.79032 0.91552,1.44427 -4.92308,-1.08127 -3.63619,1.87229 -0.78613,5.38679 2.78012,4.88812 5.43085,0.21401 5.719,-3.01232 8.75791,-2.35698 -1.66877,-7.3668" />
  <path
     inkscape:connector-curvature="0"
     id="path8408"
     style="fill:#474ebb;fill-opacity:1;fill-rule:nonzero;stroke:none;stroke-width:0.06994014"
     d="m 614.62216,238.37619 c 9.80212,-2.29893 19.60492,-4.59787 29.40774,-6.8961 2.63814,-0.61897 5.3742,-0.75186 8.01374,-1.39041 3.8579,-0.9337 4.91469,-1.25893 5.45673,-4.93848 1.57086,-10.66377 -0.42523,-21.7283 1.18549,-32.23261 3.87119,-0.38467 7.60878,-1.30228 11.56111,-1.25053 6.45337,0.0854 5.89385,4.52513 6.25684,9.47129 0.43083,5.86588 0.68681,11.75065 0.72738,17.63261 0.0335,4.87483 1.64219,26.01564 -5.51758,27.56202 -5.13151,1.12464 -56.84386,3.87748 -56.82148,4.93848 -0.009,-0.42664 -0.26997,-12.89627 -0.26997,-12.89627" />
  <path
     d="M 841.35911,387.58432 H 412.39412 c -13.56828,0 -24.66948,6.4191 -24.66948,14.26568 0,5.43366 5.32522,10.18119 13.10425,12.58784 h -37.77446 c -13.56854,0 -24.66959,6.4205 -24.66959,14.26708 0,7.84589 11.10105,14.26562 24.66959,14.26562 h 13.16242 c -3.67589,2.49358 -5.90669,5.71845 -5.90669,9.23127 v 5.70669 c 0,7.84588 11.10155,14.26618 24.67038,14.26618 h 422.57968 c 13.56828,0 24.66949,-6.4203 24.66949,-14.26618 v -5.70669 c 0,-7.84638 -11.10121,-14.26612 -24.66949,-14.26612 l -28.73356,0.31662 c 2.18864,0 5.74285,-0.99853 8.12705,-3.00602 4.18007,-3.51918 4.36514,-8.87583 2.32177,-13.31087 -1.32523,-2.87454 -3.44813,-5.1539 -8.70763,-6.01136 l 50.79126,0.19304 c 13.56827,0 24.67004,-6.41981 24.67004,-14.2671 0,-7.84658 -11.10177,-14.26568 -24.67004,-14.26568"
     style="fill:#f1f2f2;fill-opacity:1;fill-rule:nonzero;stroke:none;stroke-width:0.06215751"
     id="path8902"
     inkscape:connector-curvature="0" />
  <path
     d="M 417.59308,3.0247969 C 404.65555,4.5068285 389.97931,14.471202 388.30774,26.098751 382.33415,15.984007 361.4766,13.158425 348.94962,16.714182 c -33.05651,9.38387 -37.01792,49.102879 -17.78718,71.480932 10.34974,12.045086 23.71321,21.722706 37.84042,29.991736 11.82967,6.92407 41.53535,20.69809 41.6018,20.61765 0.091,0.049 22.3144,-23.99786 30.617,-34.90503 9.91472,-13.024955 18.58659,-27.06194 23.57052,-42.140336 9.26078,-28.015226 -13.05922,-62.64469094 -47.1991,-58.7343371"
     style="fill:#d34e4e;fill-opacity:1;fill-rule:nonzero;stroke:none;stroke-width:0.06994014"
     id="path8904"
     inkscape:connector-curvature="0" />
  <path
     d="m 411.23831,139.1619 c -0.15876,0 -13.41801,-6.12607 -25.71699,-12.25002 0.0294,7e-4 0.058,0.002 0.0874,0.003 12.08916,6.00158 24.83785,11.88984 24.99451,11.88984 7.1e-4,0 7.1e-4,0 10e-4,0 v 0 c 0.13429,0.002 22.3221,-24.00836 30.617,-34.90503 9.91472,-13.024963 18.5866,-27.061947 23.57052,-42.140343 1.39881,-4.23208 2.07723,-8.61383 2.10311,-12.992082 0.20353,-0.549031 0.40355,-1.098761 0.59869,-1.650588 0.19863,5.041286 -0.45392,10.120339 -2.06673,14.999364 -4.98394,15.078396 -13.65582,29.115388 -23.57053,42.140339 -8.29421,10.89667 -30.48201,34.90503 -30.617,34.90503 v 0 c -7e-4,0 -7e-4,7e-4 -10e-4,7e-4"
     style="fill:#e0e0e0;fill-opacity:1;fill-rule:nonzero;stroke:none;stroke-width:0.06994014"
     id="path8906"
     inkscape:connector-curvature="0" />
  <path
     d="m 410.60326,138.8045 c -0.15667,0 -12.90536,-5.88826 -24.99451,-11.88983 0.42593,0.0119 0.85187,0.0182 1.27851,0.0182 5.66655,0 11.40163,-1.07709 17.03672,-3.25223 12.67384,-4.89301 23.24251,-14.12231 31.86263,-24.021636 8.91317,-10.236445 16.73108,-21.651372 23.10403,-33.423698 3.05848,-5.651863 5.78265,-11.48627 8.00464,-17.468251 -0.0259,4.378253 -0.70429,8.760003 -2.1031,12.992082 -4.98393,15.078396 -13.6558,29.115381 -23.57052,42.140343 -8.29491,10.89667 -30.48271,34.90712 -30.617,34.90503 v 0 c -7e-4,0 -7e-4,0 -0.001,0"
     style="fill:#b94545;fill-opacity:1;fill-rule:nonzero;stroke:none;stroke-width:0.06994014"
     id="path8908"
     inkscape:connector-curvature="0" />
  <path
     d="m 456.22382,55.696722 c -8.75371,1.963919 -17.50811,3.927839 -26.26253,5.891758 -5.46861,-10.920455 -10.93724,-21.84091 -16.40656,-32.761364 -0.78962,-1.578549 -3.24662,-0.962377 -3.46413,0.685413 -2.83398,21.453441 -5.66795,42.906183 -8.50193,64.358919 -0.16436,1.24284 -0.32872,2.484978 -0.49238,3.727818 -7.25069,-12.31856 -14.50069,-24.637819 -21.75138,-36.956377 -1.16241,-1.97581 -2.32551,-3.951618 -3.48792,-5.927427 -0.7008,-1.191081 -2.91301,-1.281304 -3.36411,0.245489 -2.09471,7.096127 -4.18873,14.192954 -6.28343,21.289081 -9.84618,1.947834 -19.69165,3.895667 -29.53782,5.843505 -2.31152,0.457409 -1.64709,3.840405 0.66932,3.381604 10.21616,-2.020576 20.43372,-4.041844 30.64988,-6.063114 0.59799,-0.118199 1.21486,-0.567215 1.38551,-1.144221 1.79536,-6.081996 3.59002,-12.162592 5.38609,-18.243888 7.43743,12.638185 14.87557,25.276373 22.3144,37.914558 1.16241,1.975806 2.32481,3.951614 3.48792,5.927414 0.87216,1.48204 3.23613,1.04072 3.46483,-0.68541 2.83398,-21.453434 5.66795,-42.906175 8.50193,-64.359617 0.13568,-1.026021 0.27067,-2.052043 0.40705,-3.078765 4.78041,9.546131 9.56012,19.091563 14.34053,28.637693 0.33292,0.663033 1.20577,1.071483 1.97861,0.898731 9.21111,-2.066731 18.42293,-4.133462 27.63474,-6.199495 2.29614,-0.515459 1.63591,-3.899163 -0.66862,-3.382305"
     style="fill:#ffffff;fill-opacity:1;fill-rule:nonzero;stroke:none;stroke-width:0.06994014"
     id="path8910"
     inkscape:connector-curvature="0" />
  <path
     d="m 717.5314,53.691538 v 0 c -0.17695,0.379075 -0.62737,0.542735 -1.00644,0.365787 L 687.00253,40.277017 c -0.37908,-0.176948 -0.54274,-0.627362 -0.36579,-1.007137 0.17694,-0.379076 0.62736,-0.542737 1.00713,-0.365787 l 29.52174,13.780306 c 0.37978,0.17695 0.54344,0.628063 0.36579,1.007139"
     style="fill:#3b455a;fill-opacity:1;fill-rule:nonzero;stroke:none;stroke-width:0.06994014"
     id="path8912"
     inkscape:connector-curvature="0" />
  <path
     d="m 722.77202,53.941924 -1.64849,3.530578 -15.75752,-7.354906 c -0.97566,-0.455311 -1.39671,-1.614218 -0.94209,-2.589184 0.4553,-0.975665 1.61491,-1.397405 2.58988,-0.942094 l 15.75822,7.355606"
     style="fill:#8ec3cb;fill-opacity:1;fill-rule:nonzero;stroke:none;stroke-width:0.06994014"
     id="path8914"
     inkscape:connector-curvature="0" />
  <path
     d="m 850.23933,110.12484 -2.24297,4.27475 -18.97617,-9.95389 -6.7821,12.92914 18.97616,9.95389 -2.24227,4.27473 c -0.90643,1.72753 -0.2406,3.8628 1.48762,4.76852 1.72752,0.90642 3.86279,0.24059 4.76852,-1.48692 l 11.26665,-21.47862 c 0.90643,-1.72753 0.2406,-3.8628 -1.48692,-4.76852 -1.72823,-0.90642 -3.86279,-0.2406 -4.76852,1.48692"
     style="fill:#474ebb;fill-opacity:1;fill-rule:nonzero;stroke:none;stroke-width:0.06994014"
     id="path8916"
     inkscape:connector-curvature="0" />
  <path
     d="m 834.47132,123.79185 -0.94138,-0.49378 0.94208,0.49378 h -7e-4 m 10.46654,-10.99669 -1.11623,-0.5854 1.11693,0.5854"
     style="fill:#e0e0e0;fill-opacity:1;fill-rule:nonzero;stroke:none;stroke-width:0.06994014"
     id="path8918"
     inkscape:connector-curvature="0" />
  <path
     d="m 834.47202,123.79185 -0.94208,-0.49378 -0.44833,-0.23569 6.7821,-12.92844 3.95792,2.07582 1.11623,0.5854 -10.46654,10.99669"
     style="fill:#3e45a4;fill-opacity:1;fill-rule:nonzero;stroke:none;stroke-width:0.06994014"
     id="path8920"
     inkscape:connector-curvature="0" />
  <path
     d="m 844.556,101.18929 -16.1401,30.76738 c -0.49656,0.94768 -1.66737,1.31277 -2.61505,0.81549 l -7.45982,-3.91245 17.93964,-34.199335 7.45912,3.912453 c 0.94769,0.497281 1.31348,1.668772 0.81621,2.616462"
     style="fill:#3b455a;fill-opacity:1;fill-rule:nonzero;stroke:none;stroke-width:0.06994014"
     id="path8922"
     inkscape:connector-curvature="0" />
  <path
     d="m 843.05088,85.443665 c -1.58135,-0.702894 -3.44036,0.02795 -4.24467,1.561062 l -1.31697,2.511555 c -0.8204,1.563156 -2.75214,2.166043 -4.31531,1.345651 l -86.26837,-45.25198 c -1.03931,-0.544833 -2.23739,-0.709193 -3.38441,-0.463003 l -24.69446,5.291671 c -0.4672,0.100017 -0.86586,0.402856 -1.08687,0.826693 l -2.55631,4.909099 c -0.22031,0.422439 -0.2406,0.921111 -0.0566,1.360336 l 9.72168,23.215233 c 0.45181,1.077778 1.26452,1.964624 2.29893,2.507354 l 86.27677,45.256174 c 1.56246,0.81969 2.16604,2.75144 1.34565,4.31531 l -1.31767,2.51084 c -0.80432,1.53309 -0.34901,3.47813 1.12813,4.37966 1.61981,0.98755 3.70892,0.39096 4.57618,-1.26172 L 844.6141,89.925425 c 0.86725,-1.652684 0.16995,-3.711016 -1.56317,-4.48176"
     style="fill:#8ec3cb;fill-opacity:1;fill-rule:nonzero;stroke:none;stroke-width:0.06994014"
     id="path8924"
     inkscape:connector-curvature="0" />
  <path
     d="M 813.60748,123.71491 731.30331,80.54226 c -0.98685,-0.518257 -1.79256,-1.306482 -2.27725,-2.230392 L 718.57491,58.407602 c -0.19793,-0.376978 -0.21123,-0.788925 -0.0357,-1.125337 l 2.03246,-3.909655 c 0.17555,-0.337111 0.52245,-0.563017 0.94559,-0.615473 l 22.37315,-2.789213 c 0.19793,-0.02517 0.39867,-0.03706 0.6008,-0.03706 0.85816,0 1.73941,0.220312 2.54232,0.641352 l 66.57393,73.142694"
     style="fill:#9bc9d0;fill-opacity:1;fill-rule:nonzero;stroke:none;stroke-width:0.06994014"
     id="path8926"
     inkscape:connector-curvature="0" />
  <path
     d="m 773.32895,92.850332 -5.75468,10.970098 -2.10379,-1.10365 5.75467,-10.970112 c 0.0573,-0.108401 0.19094,-0.150365 0.30004,-0.09301 l 1.71004,0.897328 c 0.10841,0.05665 0.15107,0.190938 0.0938,0.29935"
     style="fill:#3b455a;fill-opacity:1;fill-rule:nonzero;stroke:none;stroke-width:0.06994014"
     id="path8928"
     inkscape:connector-curvature="0" />
  <path
     d="m 743.95618,77.443212 -5.75397,10.969417 -2.1045,-1.103664 5.75467,-10.969409 c 0.0566,-0.108407 0.19094,-0.150371 0.30005,-0.09372 l 1.71004,0.897333 c 0.1084,0.05665 0.15106,0.190936 0.0938,0.300043"
     style="fill:#3b455a;fill-opacity:1;fill-rule:nonzero;stroke:none;stroke-width:0.06994014"
     id="path8930"
     inkscape:connector-curvature="0" />
  <path
     d="m 802.70171,108.25814 -5.75397,10.97011 -2.10451,-1.10365 5.75468,-10.97012 c 0.0573,-0.1084 0.19094,-0.15036 0.30005,-0.0937 l 1.71003,0.89733 c 0.10841,0.0566 0.15107,0.19164 0.0938,0.30004"
     style="fill:#3b455a;fill-opacity:1;fill-rule:nonzero;stroke:none;stroke-width:0.06994014"
     id="path8932"
     inkscape:connector-curvature="0" />
  <path
     d="m 784.98727,105.86829 -2.9144,5.55674 -1.72683,-0.90572 2.91511,-5.55674 c 0.0462,-0.0888 0.15737,-0.1231 0.24549,-0.0763 l 1.4037,0.73646 c 0.0888,0.0462 0.1238,0.15667 0.0769,0.24549"
     style="fill:#3b455a;fill-opacity:1;fill-rule:nonzero;stroke:none;stroke-width:0.06994014"
     id="path8934"
     inkscape:connector-curvature="0" />
  <path
     d="m 755.6145,90.460473 -2.9144,5.557444 -1.72682,-0.905722 2.91511,-5.556744 c 0.0462,-0.08956 0.15666,-0.123799 0.24548,-0.07694 l 1.40371,0.736463 c 0.0888,0.04683 0.12379,0.156667 0.0769,0.245495"
     style="fill:#3b455a;fill-opacity:1;fill-rule:nonzero;stroke:none;stroke-width:0.06994014"
     id="path8936"
     inkscape:connector-curvature="0" />
  <path
     d="m 479.40198,300.09767 -3.63479,49.73724 -12.0353,82.34389 h -9.25378 l -5.84489,-75.98004 -2.5885,-61.47179 33.35726,5.3707"
     style="fill:#ccd2d9;fill-opacity:1;fill-rule:nonzero;stroke:none;stroke-width:0.06994014"
     id="path8938"
     inkscape:connector-curvature="0" />
  <path
     d="m 454.53126,431.07724 v 5.00373 l 10.00704,5.004 5.00353,-5.004 -5.00353,-5.00373 h -10.00704"
     style="fill:#3b455a;fill-opacity:1;fill-rule:nonzero;stroke:none;stroke-width:0.06994014"
     id="path8940"
     inkscape:connector-curvature="0" />
  <path
     d="m 413.85198,288.37571 3.51729,69.71843 8.05291,80.03586 h 9.47828 l 7.70322,-75.83036 11.25336,-79.8143 -40.00506,5.89037"
     style="fill:#ccd2d9;fill-opacity:1;fill-rule:nonzero;stroke:none;stroke-width:0.06994014"
     id="path8942"
     inkscape:connector-curvature="0" />
  <path
     d="m 434.84592,437.00194 v 5.12529 l -10.24974,5.12451 -5.12521,-5.12451 5.12521,-5.12529 h 10.24974"
     style="fill:#3b455a;fill-opacity:1;fill-rule:nonzero;stroke:none;stroke-width:0.06994014"
     id="path8944"
     inkscape:connector-curvature="0" />
  <path
     d="m 446.15663,176.59316 c -3.23333,-0.31542 -6.46736,-0.63225 -9.69999,-0.94838 -0.0357,-2.59059 0.13708,-5.18397 0.51476,-7.74727 -2.6962,-0.9435 -5.81204,-2.36049 -6.28482,-5.17697 -0.14898,-0.88755 0.002,-1.79467 0.15456,-2.68151 0.62876,-3.66557 1.25682,-7.33182 1.88559,-10.99739 0.21681,-1.26731 0.44831,-2.57309 1.13653,-3.65997 1.20646,-1.90726 3.55366,-2.74444 5.77635,-3.13331 5.67424,-0.99316 11.85975,0.228 16.26528,3.93972 1.1729,0.98756 2.23389,2.17514 2.75144,3.618 0.79873,2.2248 0.20703,4.6804 -0.39026,6.96744 -0.55112,2.1108 -1.10226,4.22159 -1.65338,6.33239 -0.63367,2.42831 -1.55058,5.18816 -3.88797,6.10228 -1.24075,0.48398 -2.7074,0.3455 -3.82993,1.06168 -1.98071,1.26382 -1.71074,4.2111 -2.73816,6.32329"
     style="fill:#efbfa5;fill-opacity:1;fill-rule:nonzero;stroke:none;stroke-width:0.06994014"
     id="path8946"
     inkscape:connector-curvature="0" />
  <path
     d="m 468.8606,139.11644 c 0.28466,-2.99694 0.43643,-5.46723 -0.18394,-8.40052 -0.36299,-1.71773 -2.5591,-7.1269 -1.89118,-8.65369 -1.24913,2.64793 -4.61955,3.3781 -7.53255,3.66906 -10.91346,1.08967 -23.09215,-1.60863 -33.12715,3.99218 -1.83174,1.02322 -3.29279,2.61996 -4.43142,4.38315 -3.94252,6.10788 -3.95301,14.52168 -0.0251,20.63934 0.88125,1.37292 1.93525,2.62695 3.0424,3.82432 2.29193,2.47869 5.03359,5.54067 8.18229,6.45618 0.0713,-2.81649 -2.50595,-11.6933 -0.3455,-14.00482 3.03261,-3.24382 8.54669,-2.61226 12.48711,-2.05064 5.06018,0.72039 9.97767,0.67423 15.08399,0.0797 1.6429,-0.19164 3.31167,-0.38957 4.83847,-1.02743 3.65297,-1.52609 3.52498,-4.92029 3.85299,-8.38652 0.0161,-0.16646 0.0322,-0.34061 0.0496,-0.52035"
     style="fill:#3b455a;fill-opacity:1;fill-rule:nonzero;stroke:none;stroke-width:0.06994014"
     id="path8948"
     inkscape:connector-curvature="0" />
  <path
     d="m 382.0313,134.91234 -1.17639,-6.02185 3.09136,-4.4412 -0.60848,-1.13304 -1.42537,0.69241 1.5107,-4.42021 -1.34355,-3.54597 -4.87833,-1.2876 -4.7937,2.04855 -0.76444,4.97904 2.17514,5.58262 1.25333,8.31378 6.95973,-0.76653"
     style="fill:#efbfa5;fill-opacity:1;fill-rule:nonzero;stroke:none;stroke-width:0.06994014"
     id="path8950"
     inkscape:connector-curvature="0" />
  <path
     d="m 382.79996,130.66347 -9.2468,-0.57771 4.12788,50.44923 39.2525,20.75964 9.04396,-24.50214 -31.03174,-14.27338 -12.1458,-31.85564"
     style="fill:#ebb044;fill-opacity:1;fill-rule:nonzero;stroke:none;stroke-width:0.06994014"
     id="path8952"
     inkscape:connector-curvature="0" />
  <path
     d="m 488.71241,112.99029 0.31474,-6.12815 -3.68865,-3.95932 0.44272,-1.20787 1.50861,0.48469 -2.12058,-4.162836 0.82949,-3.700528 4.64822,-1.963926 5.03429,1.351241 1.46105,4.821683 -1.36453,5.833006 -0.0671,8.4075 -6.99822,0.22451"
     style="fill:#efbfa5;fill-opacity:1;fill-rule:nonzero;stroke:none;stroke-width:0.06994014"
     id="path8954"
     inkscape:connector-curvature="0" />
  <path
     d="m 487.35138,108.8925 9.07264,-1.87789 0.71828,34.90292 -3.56485,26.97592 -23.19844,34.04687 -18.99295,-27.47879 22.05213,-16.20583 13.91319,-50.3632"
     style="fill:#ebb044;fill-opacity:1;fill-rule:nonzero;stroke:none;stroke-width:0.06994014"
     id="path8956"
     inkscape:connector-curvature="0" />
  <path
     d="m 453.83676,174.0984 -30.64568,1.29809 -15.47005,58.8819 -12.77527,81.62856 98.63169,2.39824 -23.19844,-115.36487 -16.54225,-28.84192"
     style="fill:#ebb044;fill-opacity:1;fill-rule:nonzero;stroke:none;stroke-width:0.06994014"
     id="path8958"
     inkscape:connector-curvature="0" />
  <path
     d="m 605.8174,153.03312 -1.12673,-5.88406 3.0347,-4.3251 -0.5896,-1.10855 -1.3939,0.67072 1.49041,-4.31041 -1.29878,-3.46693 -4.75872,-1.27571 -4.6874,1.98281 -0.76585,4.85944 2.10381,5.45883 1.19388,8.12145 6.79818,-0.72249"
     style="fill:#c1796b;fill-opacity:1;fill-rule:nonzero;stroke:none;stroke-width:0.06994014"
     id="path8960"
     inkscape:connector-curvature="0" />
  <path
     d="m 606.12933,146.85881 -9.25867,7.86757 1.31488,40.40512 15.57216,10.84631 29.76094,-3.81313 -3.97051,-25.57152 -24.85813,4.78811 -8.56067,-34.52246"
     style="fill:#474ebb;fill-opacity:1;fill-rule:nonzero;stroke:none;stroke-width:0.06994014"
     id="path8962"
     inkscape:connector-curvature="0" />
  <path
     d="m 700.98216,428.47141 1.16381,5.33923 -9.22302,7.60327 -6.35756,-4.20704 4.02996,-6.47135 9.22301,-7.60334 1.1638,5.33923"
     style="fill:#3b455a;fill-opacity:1;fill-rule:nonzero;stroke:none;stroke-width:0.06994014"
     id="path8964"
     inkscape:connector-curvature="0" />
  <path
     d="m 668.72506,264.296 10.2924,23.7342 0.97076,66.77535 21.1632,71.82714 -9.84128,4.36342 -43.18524,-83.40069 -4.9147,-26.41569 -1.95342,-55.63389 27.46828,-1.24984"
     style="fill:#474ebb;fill-opacity:1;fill-rule:nonzero;stroke:none;stroke-width:0.06994014"
     id="path8966"
     inkscape:connector-curvature="0" />
  <path
     d="m 618.89341,269.61566 -0.80851,69.98071 13.18651,90.22992 h 10.14063 l 6.40442,-83.25619 13.87612,-83.25605 -42.79917,6.30161"
     style="fill:#474ebb;fill-opacity:1;fill-rule:nonzero;stroke:none;stroke-width:0.06994014"
     id="path8968"
     inkscape:connector-curvature="0" />
  <path
     d="m 641.35329,428.61898 v 5.48318 l -10.96452,5.48267 -5.4833,-5.48267 5.4833,-5.48318 h 10.96452"
     style="fill:#3a332d;fill-opacity:1;fill-rule:nonzero;stroke:none;stroke-width:0.06994014"
     id="path8970"
     inkscape:connector-curvature="0" />
  <path
     d="m 638.86272,174.85515 26.93535,-0.99805 c 0,0 16.11351,14.1384 24.44129,50.87866 8.47954,37.40959 -1.56597,91.2656 -1.56597,91.2656 0,0 -72.26496,-9.63146 -84.11422,-11.11978 l 18.07814,-73.86309 16.22541,-56.16334"
     style="fill:#474ebb;fill-opacity:1;fill-rule:nonzero;stroke:none;stroke-width:0.06994014"
     id="path8972"
     inkscape:connector-curvature="0" />
  <path
     d="m 648.51516,177.6066 c 3.14521,-0.30705 6.29111,-0.61478 9.43633,-0.92251 0.0343,-2.51995 -0.13359,-5.04339 -0.50148,-7.53675 2.62276,-0.91832 5.65397,-2.29615 6.11417,-5.03639 0.14478,-0.86307 -0.003,-1.74571 -0.15107,-2.60807 -0.61128,-3.56625 -1.22255,-7.1325 -1.83383,-10.69875 -0.21051,-1.23304 -0.43642,-2.50246 -1.10506,-3.56065 -1.17429,-1.85552 -3.45714,-2.66962 -5.62038,-3.048 -5.51898,-0.96516 -11.53733,0.22242 -15.82256,3.83202 -1.14073,0.96098 -2.17235,2.1164 -2.67661,3.52009 -0.77703,2.16395 -0.20143,4.55311 0.37977,6.77791 0.53644,2.05413 1.07218,4.10758 1.60863,6.16102 0.61687,2.36188 1.50791,5.04688 3.78166,5.93512 1.20787,0.4721 2.63394,0.33642 3.7264,1.03372 1.92687,1.22955 1.66319,4.09639 2.66403,6.15124"
     style="fill:#c1796b;fill-opacity:1;fill-rule:nonzero;stroke:none;stroke-width:0.06994014"
     id="path8974"
     inkscape:connector-curvature="0" />
  <path
     d="m 617.78416,141.9651 c -0.0615,-2.44441 0.28326,-4.9182 0.77144,-7.14788 0.83858,-3.83063 5.35811,-5.55186 9.27057,-5.82323 8.44946,-0.5868 16.60379,-4.41742 24.85532,-1.46104 4.71677,1.69045 11.05125,2.09611 15.31899,4.47896 1.78278,0.99455 3.20396,2.54792 4.31042,4.26286 3.83622,5.94211 3.846,14.12721 0.0251,20.07911 -0.85677,1.33446 -1.88209,2.55492 -2.95917,3.72012 -2.22969,2.41084 -4.8965,5.38959 -7.96058,6.28063 -0.0693,-2.74026 2.43811,-11.37577 0.33711,-13.62364 -3.33405,-3.56766 -10.88549,-2.33461 -15.02874,-1.46315 -4.51953,0.95048 -8.55018,4.14465 -13.03125,4.82237 -3.22354,0.48748 -7.33532,-1.09876 -10.07418,-2.76824 -4.29152,-2.61646 -5.7246,-6.93946 -5.83511,-11.35687"
     style="fill:#3b455a;fill-opacity:1;fill-rule:nonzero;stroke:none;stroke-width:0.06994014"
     id="path8976"
     inkscape:connector-curvature="0" />
  <path
     d="m 646.29177,178.1857 -28.31667,113.26597 -2.32132,14.85529 35.27991,4.64122 c 0,0 -1.3925,-54.23928 -0.9281,-61.47039 0.4644,-7.23182 5.69592,-22.87322 6.49884,-39.7267 0.4644,-9.74826 3.55995,-27.25777 1.3925,-32.9586 l -11.60516,1.39321"
     style="fill:#ffffff;fill-opacity:1;fill-rule:nonzero;stroke:none;stroke-width:0.06994014"
     id="path8978"
     inkscape:connector-curvature="0" />
  <path
     d="m 751.56637,303.65273 39.77636,-14.62798 -8.19908,69.68136 4.75104,60.11776 0.41963,3.82363 -7.81511,0.20562 -18.2215,-56.27594 -9.27407,-57.05368 -1.43727,-5.87077"
     style="fill:#efbfa5;fill-opacity:1;fill-rule:nonzero;stroke:none;stroke-width:0.06994014"
     id="path9002"
     inkscape:connector-curvature="0" />
  <path
     d="m 780.49921,422.85312 8.13754,-0.20562 2.07792,6.86679 -0.20492,0.0615 0.0518,0.005 -13.45368,7.97234 -6.39603,0.71059 -0.81411,-7.31063 1.72823,-1.26522 8.8733,-6.83462"
     style="fill:#3b455a;fill-opacity:1;fill-rule:nonzero;stroke:none;stroke-width:0.06994014"
     id="path9004"
     inkscape:connector-curvature="0" />
  <path
     d="m 724.47086,304.8501 12.21784,122.10711 7.86547,1.15603 7.63817,-68.01951 13.71246,-64.1589 -41.43394,8.91527"
     style="fill:#efbfa5;fill-opacity:1;fill-rule:nonzero;stroke:none;stroke-width:0.06994014"
     id="path9006"
     inkscape:connector-curvature="0" />
  <path
     d="m 736.42922,426.92713 -10.42877,5.91337 0.97707,4.92099 18.63414,-2.80887 -1.09666,-7.08968 -8.08578,-0.93581"
     style="fill:#3b455a;fill-opacity:1;fill-rule:nonzero;stroke:none;stroke-width:0.06994014"
     id="path9008"
     inkscape:connector-curvature="0" />
  <path
     d="m 705.82202,334.81176 c -2.51645,-1.7471 -2.571,-4.7902 -2.5661,-7.83819 0.009,-5.72251 1.03791,-11.573 2.34929,-17.13394 2.49756,-10.43366 5.32944,-22.99911 6.57437,-36.51854 3.21865,-34.94071 14.2524,-58.38744 14.2524,-58.38744 l 3.56065,-9.49437 c 0.7078,-1.23444 1.44147,-2.4556 2.20801,-3.65857 4.4468,-6.97793 12.16819,-18.83629 20.42533,-20.77712 0.17275,-0.0406 0.3462,-0.0804 0.52035,-0.1189 8.68167,-1.90517 19.80775,-1.02113 27.65293,3.20046 1.48834,0.80082 2.813,1.86741 4.12718,2.92769 3.8369,3.09416 6.96533,4.76992 8.61942,9.48669 1.43657,4.0943 1.77018,8.56277 2.5619,12.80603 1.60863,8.62083 2.56821,17.34517 3.85301,26.01634 2.40804,16.26109 4.45378,32.57533 7.03108,48.81123 1.32537,8.35645 2.66122,16.72689 3.28789,25.17146 0.55392,7.46541 7.28916,15.04553 11.07362,21.736 1.31698,2.32761 -17.59694,8.36064 -19.29229,8.75511 -7.84589,1.82683 -16.19255,1.36034 -24.27972,1.3967 -17.72494,0.0811 -35.45197,-0.46649 -53.13773,-1.638 -5.87707,-0.38957 -13.11867,-1.5114 -18.33411,-4.4377 -0.17205,-0.0965 -0.33431,-0.19793 -0.48748,-0.30494"
     style="fill:#d34e4e;fill-opacity:1;fill-rule:nonzero;stroke:none;stroke-width:0.06994014"
     id="path9010"
     inkscape:connector-curvature="0" />
  <path
     d="m 762.88198,179.93001 c 0,0 9.98466,-2.6955 11.36318,19.83222 1.37922,22.52773 3.67815,79.53524 6.8968,95.16686 3.21725,15.63163 8.04521,46.29059 8.04521,46.29059 l -30.57293,1.06309 -34.9407,-2.75844 c 0,0 11.95277,-22.06751 13.7922,-37.69913 1.83872,-15.63093 -1.37922,-74.47857 6.43659,-96.54608 7.81511,-22.06752 9.45521,-24.95255 18.97965,-25.34911"
     style="fill:#ffffff;fill-opacity:1;fill-rule:nonzero;stroke:none;stroke-width:0.06994014"
     id="path9012"
     inkscape:connector-curvature="0" />
  <path
     d="m 717.69716,230.10507 -15.94496,-2.4591 v -13.73554 l 38.47198,-29.31961 12.41368,-3.67815 -5.97709,16.09112 -28.96361,33.10128"
     style="fill:#d34e4e;fill-opacity:1;fill-rule:nonzero;stroke:none;stroke-width:0.06994014"
     id="path9014"
     inkscape:connector-curvature="0" />
  <path
     d="m 748.9569,162.08199 c -1.5107,4.53561 0.67563,9.37267 2.59478,13.50614 1.70235,3.66555 2.29334,6.07849 -2.02616,7.06744 -2.43532,0.55743 -6.75482,1.59744 -8.89009,-0.26717 -1.61632,-1.41209 -0.7078,-5.77286 0.0783,-7.50457 0.60079,-1.32327 2.19122,-1.9947 2.75564,-3.33335 0.23291,-0.55113 0.26647,-1.16451 0.27557,-1.76319 0.0336,-2.44581 -0.30494,-4.89581 -1.00015,-7.2409 -0.47209,-1.59254 -1.11205,-3.15641 -1.25403,-4.81119 -0.20701,-2.39894 1.48973,-5.19446 2.38217,-7.39897 1.65828,-4.10199 7.43184,-9.60347 12.2661,-6.38344 1.10016,0.73298 1.7415,1.97231 2.27655,3.18158 0.32033,0.72178 0.62457,1.47504 0.63435,2.26466 0.0364,3.14871 -2.83816,3.68096 -4.82376,5.17908 -2.44931,1.84851 -4.30482,4.60905 -5.2693,7.50388"
     style="fill:#3b455a;fill-opacity:1;fill-rule:nonzero;stroke:none;stroke-width:0.06994014"
     id="path9016"
     inkscape:connector-curvature="0" />
  <path
     d="m 758.15193,179.78174 c -4.19361,-0.98826 -7.4717,-4.50905 -9.04746,-8.51802 -1.57504,-4.00966 -1.65757,-8.45576 -1.22185,-12.74169 1.44987,-14.2615 19.19018,-13.34598 25.19804,-2.41504 5.23642,9.52585 -2.73746,26.54649 -14.92873,23.67475"
     style="fill:#efbfa5;fill-opacity:1;fill-rule:nonzero;stroke:none;stroke-width:0.06994014"
     id="path9018"
     inkscape:connector-curvature="0" />
  <path
     d="m 758.15543,178.24445 c 0.0707,1.62471 0.14128,3.24942 0.21122,4.87343 0.0108,0.23849 0.0301,0.49937 0.19653,0.66933 0.18954,0.19443 0.49448,0.19793 0.76585,0.18883 1.32397,-0.0462 2.64793,-0.0924 3.9719,-0.13777 0.65604,-0.0223 1.33866,-0.0524 1.91706,-0.363 1.26662,-0.67912 1.52819,-2.39545 1.32607,-3.81803 -0.20213,-1.42328 -0.7127,-2.85706 -0.41055,-4.26286 -2.73466,1.34706 -5.33014,-1.69604 -8.0648,-0.3497 l 0.0867,3.19977"
     style="fill:#efbfa5;fill-opacity:1;fill-rule:nonzero;stroke:none;stroke-width:0.06994014"
     id="path9020"
     inkscape:connector-curvature="0" />
  <path
     d="m 763.87724,133.79678 c 4.65801,1.58275 7.64586,6.29462 12.19196,8.17601 2.60667,1.07918 5.69173,1.21626 7.81862,3.07037 4.76711,4.15444 0.93579,12.87248 4.85174,17.83684 0.8148,1.03231 1.91217,1.81285 2.72976,2.84237 1.7639,2.2206 1.994,5.2511 2.15136,8.08298 0.0357,0.63646 0.042,1.33096 -0.0679,1.97161 -0.61268,6.5387 -10.10495,6.12326 -13.87543,5.70431 -4.13766,-0.4595 -2.75844,-2.75843 -2.75844,-2.75843 l 0.14968,-0.18394 c 0.39726,-2.65493 -0.69451,-5.48611 -2.78012,-7.17726 -0.77424,-0.62736 -1.68906,-1.12744 -2.23529,-1.96112 -1.22466,-1.8709 -0.056,-4.35028 -0.235,-6.57997 -0.72598,-8.97822 -15.79388,-7.05416 -20.04695,-13.44599 -5.21474,-7.83889 3.30888,-18.56632 12.10594,-15.57778"
     style="fill:#3b455a;fill-opacity:1;fill-rule:nonzero;stroke:none;stroke-width:0.06994014"
     id="path9022"
     inkscape:connector-curvature="0" />
  <path
     d="m 800.91823,121.49501 -5.76795,-8.07039 -3.55716,2.31502 2.72627,6.40163 -2.18983,0.31402 5.77706,6.30511 4.02225,-1.90728 -1.01064,-5.35811"
     style="fill:#efbfa5;fill-opacity:1;fill-rule:nonzero;stroke:none;stroke-width:0.06994014"
     id="path9024"
     inkscape:connector-curvature="0" />
  <path
     d="m 776.49933,190.36648 30.17428,-24.37205 -11.19882,-37.23403 11.12818,-4.53073 20.74775,49.09728 -30.21554,38.11879 -20.63585,-21.07926"
     style="fill:#d34e4e;fill-opacity:1;fill-rule:nonzero;stroke:none;stroke-width:0.06994014"
     id="path9026"
     inkscape:connector-curvature="0" />
  <path
     d="m 735.28011,232.39281 9.01179,-1.48973 -0.4693,-3.87957 -6.39672,-0.34621 0.62945,-1.93734 -7.55633,2.21501 -0.0573,4.09779 4.83846,1.34005"
     style="fill:#efbfa5;fill-opacity:1;fill-rule:nonzero;stroke:none;stroke-width:0.06994014"
     id="path9028"
     inkscape:connector-curvature="0" />
  <path
     d="m 710.79826,217.81658 -0.0468,0.78403 22.05491,6.74643 -0.52874,8.12635 -30.52538,-7.8291 9.04606,-7.82771"
     style="fill:#d34e4e;fill-opacity:1;fill-rule:nonzero;stroke:none;stroke-width:0.06994014"
     id="path9030"
     inkscape:connector-curvature="0" />
  <path
     d="m 660.59662,442.23269 h -87.47764 c -6.90939,0 -12.51089,-5.6015 -12.51089,-12.50998 v -59.30512 c 0,-6.91008 5.6015,-12.51089 12.51089,-12.51089 h 87.47764 c 6.91009,0 12.5109,5.60081 12.5109,12.51089 v 59.30512 c 0,6.90848 -5.60151,12.50998 -12.5109,12.50998"
     style="fill:#d34e4e;fill-opacity:1;fill-rule:nonzero;stroke:none;stroke-width:0.06994014"
     id="path9032"
     inkscape:connector-curvature="0" />
  <path
     d="m 641.49386,353.32143 c 0,-5.38959 0,-10.77988 0,-16.16947 0,-1.46105 -1.39041,-2.70249 -3.03329,-2.70249 -12.77667,0 -25.55194,0 -38.3286,0 -1.82754,0 -3.65508,0 -5.48261,0 -1.64009,0 -3.03331,1.23794 -3.03331,2.70249 0,5.377 0,10.754 0,16.131 -2.4521,0.0707 -4.41882,2.11079 -4.41882,4.62374 h 14.86298 c 0,-2.49826 -1.94503,-4.52933 -4.37754,-4.62235 0,-4.47616 0,-8.95303 0,-13.42991 11.76462,0 23.53066,0 35.29528,0 0.81621,0 1.63241,0 2.44931,0 0,4.47408 0,8.94745 0,13.42153 h -0.30424 c -2.51295,0 -4.54961,2.07301 -4.54961,4.63073 h 14.86298 c 0,-2.3479 -1.71773,-4.28244 -3.94253,-4.58527"
     style="fill:#d34e4e;fill-opacity:1;fill-rule:nonzero;stroke:none;stroke-width:0.06994014"
     id="path9034"
     inkscape:connector-curvature="0" />
  <path
     d="m 642.93114,391.59337 c -6.09109,0 -12.18218,0 -18.27396,0 -0.57002,0 -1.14003,0 -1.71144,0 0,-4.51464 0,-9.02857 0,-13.54321 0,-2.26536 0,-4.53002 0,-6.79469 0,-0.75465 -0.62806,-1.396 -1.37153,-1.396 -3.78586,0 -7.57171,0 -11.35757,0 -0.74137,0 -1.37153,0.63925 -1.37153,1.396 0,6.1981 0,12.3969 0,18.59569 0,0.58121 0,1.1617 0,1.74221 -4.4363,0 -8.87261,0 -13.30821,0 -2.2262,0 -4.45169,0 -6.67719,0 -0.74206,0 -1.37223,0.63925 -1.37223,1.396 0,3.85231 0,7.70531 0,11.55691 0,0.42874 0.15737,0.75326 0.39377,0.97777 0.22101,0.25109 0.54693,0.41895 0.97846,0.41895 6.09109,0 12.18287,0 18.27396,0 0.57002,0 1.14073,0 1.71144,0 0,4.51462 0,9.02856 0,13.5432 0,2.26466 0,4.52933 0,6.79469 0,0.75465 0.62806,1.39601 1.37153,1.39601 3.78586,0 7.57171,0 11.35757,0 0.42035,0 0.73997,-0.15948 0.96028,-0.40146 0.24759,-0.22381 0.41125,-0.55463 0.41125,-0.99455 0,-6.1988 0,-12.39759 0,-18.59639 0,-0.5805 0,-1.16101 0,-1.7415 4.4363,0 8.87261,0 13.30821,0 2.2262,0 4.45239,0 6.67719,0 0.74206,0 1.37223,-0.63996 1.37223,-1.39672 0,-3.8516 0,-7.7046 0,-11.55691 0,-0.75464 -0.62806,-1.396 -1.37223,-1.396"
     style="fill:#ffffff;fill-opacity:1;fill-rule:nonzero;stroke:none;stroke-width:0.06994014"
     id="path9036"
     inkscape:connector-curvature="0" />
  <path
     d="m 414.67867,216.63039 c 3.08646,14.23004 17.08288,23.2719 31.26045,20.19522 14.17827,-3.07736 23.16838,-17.10735 20.08191,-31.33807 -3.08716,-14.23073 -17.08288,-23.27259 -31.26115,-20.19522 -14.17827,3.07736 -23.16836,17.10736 -20.08121,31.33807"
     style="fill:#3b455a;fill-opacity:1;fill-rule:nonzero;stroke:none;stroke-width:0.06994014"
     id="path9038"
     inkscape:connector-curvature="0" />
  <path
     d="m 422.7036,214.88819 c 2.12269,9.78113 11.74226,15.99671 21.48771,13.88172 9.74546,-2.11499 15.92538,-11.75903 13.80339,-21.54086 -2.12198,-9.78113 -11.74225,-15.99602 -21.48701,-13.88103 -9.74546,2.115 -15.92608,11.75904 -13.80409,21.54017"
     style="fill:#ccd2d9;fill-opacity:1;fill-rule:nonzero;stroke:none;stroke-width:0.06994014"
     id="path9040"
     inkscape:connector-curvature="0" />
  <path
     d="m 457.05401,304.67316 6.87931,-1.49393 -17.81516,-82.12861 -6.87861,1.49252 17.81446,82.13002"
     style="fill:#ccd2d9;fill-opacity:1;fill-rule:nonzero;stroke:none;stroke-width:0.06994014"
     id="path9042"
     inkscape:connector-curvature="0" />
  <path
     d="m 434.58713,212.97323 c 0.72669,3.34804 4.01946,5.47561 7.35561,4.75173 3.33614,-0.72388 5.45113,-4.02575 4.72516,-7.37379 -0.72668,-3.34873 -4.01947,-5.47561 -7.35561,-4.75174 -3.33544,0.72388 -5.45114,4.02507 -4.72516,7.3738"
     style="fill:#3b455a;fill-opacity:1;fill-rule:nonzero;stroke:none;stroke-width:0.06994014"
     id="path9044"
     inkscape:connector-curvature="0" />
  <path
     d="m 440.30124,237.39214 c -0.70779,0 -1.51281,-0.0175 -2.29053,-0.0721 -0.63087,-0.0573 -1.25823,-0.13778 -1.8786,-0.23989 -0.002,-7e-4 -0.004,-7e-4 -0.005,-0.001 l 0.3609,-8.32008 c 1.25682,0.27836 2.55351,0.42384 3.87118,0.42454 0.10628,0 0.21331,-10e-4 0.32032,-0.003 l 1.77019,8.16061 c 0,0 -0.92881,0.0518 -2.14786,0.0518"
     style="fill:#333c4e;fill-opacity:1;fill-rule:nonzero;stroke:none;stroke-width:0.06994014"
     id="path9048"
     inkscape:connector-curvature="0" />
  <path
     d="m 440.35859,229.18326 c -1.31767,-7e-4 -2.61435,-0.14618 -3.87118,-0.42454 l 0.52315,-12.07166 c 0.3427,0.24827 0.70989,0.46159 1.09596,0.63505 l 2.5724,11.85765 c -0.10704,0.002 -0.21402,0.003 -0.32033,0.003"
     style="fill:#b2b7bd;fill-opacity:1;fill-rule:nonzero;stroke:none;stroke-width:0.06994014"
     id="path9050"
     inkscape:connector-curvature="0" />
  <path
     d="m 438.10652,217.32211 c -0.38607,-0.17346 -0.75326,-0.38678 -1.09596,-0.63505 v 0 l 1.09596,0.63435 v 7e-4"
     style="fill:#333c4e;fill-opacity:1;fill-rule:nonzero;stroke:none;stroke-width:0.06994014"
     id="path9052"
     inkscape:connector-curvature="0" />
  <path
     d="m 535.33032,355.2266 c 0.76025,-0.19654 0.28326,-0.0657 0,0 m 42.21448,-74.4387 c -1.52749,0.27206 -2.83748,1.58973 -4.53213,1.42748 0.18884,1.20506 0.0699,0.41124 -0.0671,-0.38258 -0.13708,-0.79662 -0.29305,-1.59393 -0.17485,-0.37138 0.31473,3.262 0.51476,6.538 0.59239,9.82169 0.0434,1.86112 0.0482,3.72431 0.009,5.59032 -0.006,0.32172 -0.0735,2.06953 -0.0161,0.74906 -0.0209,0.49168 -0.0392,0.98266 -0.0629,1.47434 -0.0462,0.94769 -0.10489,1.89607 -0.17555,2.84446 -0.30705,4.12717 -0.84488,8.25924 -1.68626,12.37242 -0.42733,2.0898 -0.9337,4.17402 -1.53309,6.24775 -0.31403,1.08616 -0.65324,2.16954 -1.02043,3.24872 -0.15666,0.46091 -0.32312,0.91971 -0.48608,1.38062 -0.0301,0.0846 -0.0825,0.22661 -0.1245,0.33641 -0.0336,0.0868 -0.0665,0.17345 -0.10143,0.26018 -1.60583,3.97679 -3.54946,7.88085 -6.10857,11.60027 -0.31193,0.45461 -0.63786,0.90293 -0.96448,1.35194 0.33922,-0.47139 -0.52036,0.66864 -0.6938,0.88264 -0.63156,0.77914 -1.2918,1.54429 -1.98141,2.29474 -1.43796,1.56526 -3.01511,3.03611 -4.69158,4.45309 0.31822,-0.27906 -1.00854,0.78193 -1.25542,0.96308 -0.4798,0.3511 -0.96798,0.69451 -1.46596,1.03091 -0.90082,0.60918 -1.83033,1.19318 -2.78501,1.74921 -0.64346,0.37488 -1.29809,0.73716 -1.96322,1.08687 -0.2231,0.1168 -0.45251,0.22801 -0.67352,0.3476 l -0.0651,0.035 -0.0679,0.0294 c -1.08058,0.47278 -2.14087,0.96237 -3.24593,1.396 -1.38831,0.54553 -2.80809,1.03792 -4.24955,1.47853 -0.60639,0.18604 -1.21627,0.3623 -1.83034,0.52945 -0.27417,0.0749 -0.55043,0.14617 -0.826,0.21822 l -0.0538,0.0119 c -2.95707,0.61618 -5.88686,1.18269 -8.90198,1.48553 -0.85956,0.086 -1.71983,0.14477 -2.58009,0.20632 l -0.16717,0.01 c 0.0112,-7e-4 -0.0315,0.002 -0.10207,0.005 -0.19233,0.01 -0.38538,0.0189 -0.577,0.0279 0.13917,-0.006 0.25247,-0.0126 0.3448,-0.0175 -0.1224,0.005 -0.25039,0.009 -0.33711,0.0108 -1.29529,0.009 -2.585,0.009 -3.87259,-0.0539 -1.37921,-0.0671 -2.75005,-0.18674 -4.10549,-0.35879 -0.57141,-0.0721 -1.13513,-0.16646 -1.70444,-0.2455 l -0.0378,-0.004 -0.086,-0.0203 c -0.24129,-0.0546 -0.49098,-0.0965 -0.73437,-0.14688 -2.41783,-0.50286 -4.76012,-1.17919 -6.99751,-2.00728 -0.33572,-0.1252 -2.40805,-1.00643 -1.10576,-0.42104 -0.47979,-0.21611 -0.96657,-0.42454 -1.44076,-0.64694 -1.00784,-0.4714 -1.9898,-0.97288 -2.94518,-1.50092 -1.93804,-1.07008 -3.75089,-2.25347 -5.4882,-3.5047 -0.1357,-0.10068 -0.31613,-0.235 -0.39936,-0.30144 -0.26578,-0.21192 -0.53644,-0.42034 -0.80082,-0.63366 -0.39796,-0.32102 -0.79102,-0.64695 -1.17709,-0.97707 -0.8246,-0.7015 -1.62261,-1.41978 -2.39755,-2.15485 -1.65619,-1.57156 -3.20395,-3.21305 -4.65732,-4.9056 -0.77353,-0.90083 -1.5198,-1.81565 -2.24227,-2.74305 -0.20353,-0.26089 -0.9456,-1.26103 -0.52945,-0.69032 -0.29725,-0.40634 -0.59449,-0.8127 -0.88475,-1.22185 -5.08464,-7.16746 -8.91807,-14.90075 -11.99403,-22.80328 -0.7064,-1.81495 -1.37153,-3.64108 -1.99819,-5.47771 -0.16436,-0.48399 -0.32452,-0.96868 -0.48609,-1.45266 l -0.0398,-0.1175 c -0.0175,-0.0566 -0.0398,-0.12869 -0.0693,-0.22242 -0.26227,-0.83648 -0.52386,-1.67366 -0.77494,-2.51294 -0.86446,-2.90042 -1.64009,-5.82112 -2.32411,-8.76 -0.62807,-2.7018 -1.22186,-5.42246 -1.61212,-8.16551 -0.76654,-5.40148 -11.6849,-3.84952 -10.91836,1.54288 0.0273,0.19092 0.0623,0.38047 0.0874,0.57141 0.55253,4.12296 1.60933,8.21376 2.68571,12.24022 2.05414,7.68572 4.64962,15.27983 7.99696,22.62074 7.30455,16.01769 18.83348,32.9537 39.36371,40.37715 21.50029,7.77455 49.7834,0.91761 64.81074,-14.53707 14.19854,-14.6021 17.66688,-33.68247 18.20332,-50.81221 0.25808,-8.25503 1.11764,-8.60194 -0.28256,-16.73807 -1.15051,0.49168 -2.51714,0.48118 -3.8558,0.47139 -0.89104,-0.006 -1.76948,-0.014 -2.5647,0.1273"
     style="fill:#7fc5a3;fill-opacity:1;fill-rule:nonzero;stroke:none;stroke-width:0.06994014"
     id="path9054"
     inkscape:connector-curvature="0" />
  <path
     d="m 579.47095,114.09465 c 7.86057,-1.31697 15.72114,-2.63465 23.58242,-3.95162 1.67716,-0.28116 3.34173,0.90712 3.62429,2.59407 3.00883,17.96274 6.01765,35.92616 9.02578,53.8889 0.42454,2.53392 0.84908,5.06785 1.27361,7.60179 0.67143,4.00826 -5.53366,5.05457 -6.20579,1.04001 -3.00953,-17.96273 -6.01765,-35.92616 -9.02577,-53.88888 -0.25109,-1.49533 -0.50078,-2.99135 -0.75187,-4.48736 -6.82616,1.14421 -13.65301,2.28773 -20.47987,3.43196 -3.99357,0.66932 -5.04338,-5.55885 -1.0428,-6.22887"
     style="fill:#ccd2d9;fill-opacity:1;fill-rule:nonzero;stroke:none;stroke-width:0.06994014"
     id="path9056"
     inkscape:connector-curvature="0" />
  <path
     d="m 572.08597,124.73534 7.16047,-1.20017 -2.08631,-12.45844 -7.16117,1.20087 c -2.89973,0.48539 -4.85735,3.22984 -4.37266,6.12815 l 0.32871,1.95973 c 0.48539,2.89902 3.23054,4.85595 6.13096,4.36986"
     style="fill:#3b455a;fill-opacity:1;fill-rule:nonzero;stroke:none;stroke-width:0.06994014"
     id="path9058"
     inkscape:connector-curvature="0" />
  <path
     d="m 578.44283,124.6661 6.06871,-1.01693 c 3.35153,-0.56162 5.61269,-3.73201 5.05247,-7.08214 l -0.37977,-2.26397 c -0.56093,-3.35012 -3.73341,-5.61128 -7.08424,-5.04967 l -6.06731,1.01693 2.41014,14.39578"
     style="fill:#ccd2d9;fill-opacity:1;fill-rule:nonzero;stroke:none;stroke-width:0.06994014"
     id="path9060"
     inkscape:connector-curvature="0" />
  <path
     d="m 517.89215,123.98628 c -7.86058,1.31697 -15.72185,2.63464 -23.58313,3.95231 -1.67716,0.28117 -2.86334,1.94644 -2.58148,3.6341 3.00952,17.96342 6.01694,35.92615 9.02577,53.88888 0.42454,2.53393 0.84907,5.06787 1.27291,7.6018 0.67143,4.00826 6.87791,2.97455 6.20649,-1.04001 -3.00882,-17.96273 -6.01695,-35.92616 -9.02508,-53.88888 -0.25108,-1.49533 -0.50217,-2.99135 -0.75186,-4.48736 6.82686,-1.14353 13.65302,-2.28775 20.47988,-3.43127 3.99288,-0.66933 2.95638,-6.8996 -1.0435,-6.22957"
     style="fill:#ccd2d9;fill-opacity:1;fill-rule:nonzero;stroke:none;stroke-width:0.06994014"
     id="path9062"
     inkscape:connector-curvature="0" />
  <path
     d="m 528.3412,131.63843 -7.16118,1.20018 -2.08631,-12.45774 7.16047,-1.20017 c 2.90043,-0.48609 5.64487,1.47014 6.13096,4.36986 l 0.32802,1.95972 c 0.48608,2.89902 -1.47224,5.64207 -4.37196,6.12815"
     style="fill:#3b455a;fill-opacity:1;fill-rule:nonzero;stroke:none;stroke-width:0.06994014"
     id="path9064"
     inkscape:connector-curvature="0" />
  <path
     d="m 522.30816,133.64571 -6.06731,1.01693 c -3.35153,0.56163 -6.52401,-1.69884 -7.08493,-5.04967 l -0.37907,-2.26467 c -0.56163,-3.34943 1.70023,-6.51982 5.05178,-7.08143 l 6.0687,-1.01693 2.41083,14.39577"
     style="fill:#ccd2d9;fill-opacity:1;fill-rule:nonzero;stroke:none;stroke-width:0.06994014"
     id="path9066"
     inkscape:connector-curvature="0" />
  <path
     d="m 573.31971,289.79828 c -0.16016,-1.65548 -0.28256,-2.71647 -0.28256,-2.71647 l 0.15737,-0.0462 c 0.051,0.92042 0.093,1.84083 0.12519,2.76264"
     style="fill:#dedede;fill-opacity:1;fill-rule:nonzero;stroke:none;stroke-width:0.06994014"
     id="path9068"
     inkscape:connector-curvature="0" />
  <path
     d="m 573.78411,295.42287 c -0.14337,-2.13107 -0.31962,-4.12297 -0.4644,-5.62459 -0.0322,-0.92181 -0.0741,-1.84222 -0.12519,-2.76264 l 10.36723,-3.02909 0.72878,4.64682 -10.50642,6.7695"
     style="fill:#6fac8e;fill-opacity:1;fill-rule:nonzero;stroke:none;stroke-width:0.06994014"
     id="path9070"
     inkscape:connector-curvature="0" />
  <path
     d="m 619.20884,174.35298 c 2.55981,11.20021 3.70962,22.86483 4.09989,34.32313 0.69101,20.3218 -1.17779,42.91457 -13.21869,60.02823 -12.74309,18.111 -38.26634,25.8156 -58.56578,16.25759 -19.38391,-9.12579 -31.15134,-29.40355 -38.97274,-48.52658 -3.58514,-8.7642 -6.49605,-17.81795 -8.91597,-26.97172 -1.26662,-4.79439 -2.52134,-9.66642 -3.31377,-14.56923 -0.0371,-0.22661 -0.0825,-0.45181 -0.1203,-0.67842 -1.07707,-6.41281 8.85092,-8.08718 9.9294,-1.66387 0.54833,3.26201 1.28131,6.49954 2.04575,9.71608 0.8323,3.49841 1.74641,6.97723 2.74236,10.43297 0.28816,1.00014 0.58679,1.9975 0.88544,2.99484 0.39586,1.32047 -0.2343,-0.72458 0.12309,0.40426 0.18324,0.577 0.36369,1.1554 0.54834,1.73241 0.7036,2.18842 1.44006,4.36636 2.2157,6.53101 3.37391,9.42723 7.43184,18.66493 12.60042,27.24938 0.32941,0.54694 0.66513,1.08827 1.00154,1.63031 -0.63016,-1.01834 0.21262,0.32592 0.43083,0.66163 0.72808,1.11135 1.47714,2.20872 2.24998,3.28929 1.45335,2.03106 2.98994,4.00337 4.62094,5.89385 0.76235,0.88404 1.54638,1.75061 2.35209,2.59548 0.37908,0.39656 0.76164,0.78893 1.14981,1.17639 0.25739,0.25739 0.52036,0.50986 0.77914,0.76515 0.21121,0.20772 1.06099,0.97566 0.1119,0.1154 1.76879,1.60443 3.60751,3.12212 5.56304,4.49226 0.91482,0.64205 1.85272,1.25193 2.8109,1.82613 0.45251,0.27207 0.91341,0.52665 1.36942,0.79033 -1.23654,-0.7148 0.72808,0.36368 1.04561,0.51685 2.11429,1.01693 4.31321,1.85552 6.57088,2.48987 0.2266,0.0643 0.4595,0.11681 0.68471,0.18535 1.1701,0.35529 -1.08897,-0.20004 0.1154,0.0315 0.52875,0.10208 1.0533,0.22241 1.58415,0.31753 1.25682,0.22521 2.52483,0.38746 3.79845,0.48888 1.18758,0.0937 2.37237,0.11331 3.56274,0.12309 0.31264,0.001 1.22256,-0.0553 -0.006,0.009 0.25737,-0.0133 0.51685,-0.0195 0.77424,-0.0392 0.78822,-0.0595 1.57295,-0.1161 2.35768,-0.20493 2.75005,-0.31402 5.40498,-0.94139 8.07948,-1.62751 0.24059,-0.0609 0.95119,-0.30633 -0.14338,0.051 0.31264,-0.10208 0.62527,-0.20353 0.9372,-0.31053 0.55253,-0.18884 1.10086,-0.38818 1.64499,-0.59939 1.2939,-0.50078 2.56471,-1.06449 3.80405,-1.68976 0.98616,-0.49797 1.92615,-1.06308 2.88643,-1.60722 1.07917,-0.61198 -0.88964,0.63995 0.1175,-0.0748 0.19514,-0.13918 0.39866,-0.26647 0.5952,-0.40215 0.58819,-0.40426 1.1652,-0.8239 1.73031,-1.25823 0.83928,-0.64624 1.65199,-1.32537 2.43811,-2.03456 0.43433,-0.39166 0.86026,-0.79172 1.27641,-1.20157 0.25038,-0.24619 1.77438,-1.89608 0.8197,-0.8162 1.54497,-1.74921 2.98434,-3.57184 4.27264,-5.52038 0.5826,-0.87985 1.13513,-1.77858 1.66178,-2.6934 0.16436,-0.28465 1.0519,-1.96042 0.41404,-0.71968 0.32453,-0.63226 0.64905,-1.26452 0.95679,-1.90586 2.094,-4.37547 3.61101,-8.97962 4.81188,-13.6754 0.0609,-0.23849 0.1161,-0.47839 0.17415,-0.71828 -0.28535,1.17569 -0.0713,0.30912 -0.006,0.0133 0.11679,-0.54343 0.23849,-1.08617 0.3511,-1.63101 0.26227,-1.275 0.49937,-2.55491 0.71269,-3.83971 0.40705,-2.4521 0.72807,-4.91819 0.97706,-7.39197 0.48888,-4.86924 0.698,-9.76504 0.69451,-14.65806 -7e-4,-1.12463 -0.0126,-2.24927 -0.0357,-3.37391 -0.0119,-0.58331 -0.0301,-1.16591 -0.0434,-1.74921 0.0385,1.56737 -0.0217,-0.50636 -0.0371,-0.88823 -0.0938,-2.21361 -0.22591,-4.42582 -0.39586,-6.63522 -0.29724,-3.89917 -0.70779,-7.78994 -1.22325,-11.66603 -0.60149,-4.52581 -1.43797,-8.99009 -2.26745,-13.47536 -0.0398,-0.21822 -0.093,-0.43433 -0.14269,-0.65114 -0.60777,-2.66333 1.56107,-5.38469 4.12997,-5.81482 2.81998,-0.4728 5.18956,1.47992 5.79944,4.15094"
     style="fill:#7fc5a3;fill-opacity:1;fill-rule:nonzero;stroke:none;stroke-width:0.06994014"
     id="path9072"
     inkscape:connector-curvature="0" />
  <path
     d="m 527.84043,367.18705 -0.009,-0.0378 c 0.30564,-0.0797 0.45532,-0.1168 0.4693,-0.1196 h 7e-4 l 0.0181,-0.003 0.004,0.0182 -0.0161,0.0209 v 0.002 l -0.014,0.003 c -0.0468,0.0181 -0.16436,0.049 -0.45321,0.1161"
     style="fill:#a0a2a5;fill-opacity:1;fill-rule:nonzero;stroke:none;stroke-width:0.06994014"
     id="path9074"
     inkscape:connector-curvature="0" />
  <path
     d="m 565.48362,333.36261 -0.037,-0.014 0.0161,-0.0378 0.035,0.014 -0.014,0.0378"
     style="fill:#a0a2a5;fill-opacity:1;fill-rule:nonzero;stroke:none;stroke-width:0.06994014"
     id="path9076"
     inkscape:connector-curvature="0" />
  <path
     d="m 569.85768,268.92045 -0.003,-0.0384 c 0.0938,-0.01 0.15316,-0.014 0.17485,-0.0147 l 0.002,0.0392 -0.17345,0.014"
     style="fill:#a0a2a5;fill-opacity:1;fill-rule:nonzero;stroke:none;stroke-width:0.06994014"
     id="path9078"
     inkscape:connector-curvature="0" />
  <path
     d="m 579.72203,271.17322 -0.0112,-0.037 c 0.0741,-0.0245 0.31822,-0.10283 0.33222,-0.10564 l 0.0189,-0.003 0.004,0.0182 -0.0161,0.0217 v 0.001 l -0.006,0.002 c -0.0343,0.0161 -0.11889,0.0434 -0.32172,0.10208"
     style="fill:#a0a2a5;fill-opacity:1;fill-rule:nonzero;stroke:none;stroke-width:0.06994014"
     id="path9080"
     inkscape:connector-curvature="0" />
  <path
     d="m 604.69696,240.48419 v 0 l -0.0378,-0.009 10e-4,-0.005 0.003,-0.0126 c 0.0133,-0.0532 0.0308,-0.12868 0.0566,-0.2322 l 0.009,-0.0378 0.035,-0.14478 0.002,-0.008 0.0385,0.009 c -0.0181,0.0727 -0.0329,0.13568 -0.0462,0.19093 -0.0203,0.0832 -0.0398,0.16646 -0.0609,0.24969"
     style="fill:#a0a2a5;fill-opacity:1;fill-rule:nonzero;stroke:none;stroke-width:0.06994014"
     id="path9082"
     inkscape:connector-curvature="0" />
  <path
     d="m 604.67598,240.57301 -0.0385,-0.008 0.008,-0.0329 v -7e-4 l 0.0385,0.01 -0.008,0.0315"
     style="fill:#a0a2a5;fill-opacity:1;fill-rule:nonzero;stroke:none;stroke-width:0.06994014"
     id="path9084"
     inkscape:connector-curvature="0" />
  <path
     d="m 570.00734,272.8336 -10e-4,-0.0384 0.0251,-0.001 c 0.16716,-0.008 0.2364,-0.0112 0.24689,-0.0112 l 10e-4,0.0392 -0.0839,0.004 c -0.0504,0.002 -0.1175,0.005 -0.18744,0.008 h -7e-4"
     style="fill:#a0a2a5;fill-opacity:1;fill-rule:nonzero;stroke:none;stroke-width:0.06994014"
     id="path9086"
     inkscape:connector-curvature="0" />
  <path
     d="m 756.64473,292.84348 -49.37356,11.98004 c -18.25927,4.43071 -36.61156,-6.60515 -40.99192,-24.649 v -7e-4 c -4.37965,-18.04386 6.87163,-36.26257 25.1316,-40.69328 l 49.24975,-11.95067 15.98413,65.31361"
     style="fill:#e0e0e0;fill-opacity:1;fill-rule:nonzero;stroke:none;stroke-width:0.06994014"
     id="path9128"
     inkscape:connector-curvature="0" />
  <path
     d="m 758.38833,292.42034 55.5129,-13.58448 c 16.77934,-4.07121 27.07942,-20.97434 23.0075,-37.75228 l -1.11344,-4.58668 c -4.07191,-16.77655 -20.97295,-27.07663 -37.7495,-23.00541 l -55.51778,13.58517 15.86032,65.34368"
     style="fill:#3b455a;fill-opacity:1;fill-rule:nonzero;stroke:none;stroke-width:0.06994014"
     id="path9130"
     inkscape:connector-curvature="0" />
  <path
     d="m 729.26735,259.24143 c -4.18241,1.01484 -8.36344,2.02897 -12.54586,3.0438 -0.39096,0.0951 -0.78333,0.19023 -1.17429,0.28466 -0.73018,-3.00883 -1.46106,-6.01835 -2.19123,-9.02788 -0.36719,-1.51001 -0.73368,-3.02001 -1.10015,-4.53002 -0.1217,-0.50287 -0.65745,-0.82599 -1.16731,-0.7022 -2.59898,0.63086 -5.19795,1.26102 -7.79693,1.89188 -0.50916,0.12379 -0.83858,0.65464 -0.71548,1.1589 1.00224,4.13277 2.00588,8.26484 3.00812,12.3976 0.0944,0.38677 0.18814,0.77423 0.28256,1.16101 -3.04589,0.73856 -6.09109,1.47783 -9.13628,2.2171 -1.52749,0.37068 -3.05639,0.74136 -4.58388,1.11275 -0.50916,0.12309 -0.83858,0.65464 -0.71619,1.1589 0.62387,2.56821 1.24634,5.13641 1.8702,7.70462 0.0699,0.28535 0.22941,0.47559 0.42874,0.58539 0.19233,0.13148 0.44271,0.18884 0.73927,0.1168 4.18102,-1.01483 8.36344,-2.02896 12.54446,-3.0438 0.39236,-0.0951 0.78332,-0.19024 1.17569,-0.28535 0.73018,3.00952 1.46105,6.01905 2.19123,9.02857 0.36649,1.51001 0.73297,3.02002 1.09946,4.52933 0.12239,0.50357 0.65744,0.82669 1.168,0.70289 2.59898,-0.63085 5.19795,-1.26172 7.79623,-1.89188 0.28885,-0.0707 0.48258,-0.2294 0.59449,-0.42733 0.13358,-0.19094 0.19233,-0.43923 0.12169,-0.73228 -1.00363,-4.13206 -2.00588,-8.26482 -3.00952,-12.39689 -0.0938,-0.38676 -0.18744,-0.77424 -0.28116,-1.1617 3.04519,-0.73857 6.09039,-1.47713 9.13559,-2.2164 1.52818,-0.37069 3.05567,-0.74136 4.58387,-1.11275 0.50986,-0.1231 0.83858,-0.65464 0.71619,-1.15891 -0.62317,-2.5682 -1.24704,-5.1371 -1.8702,-7.70461 -0.1217,-0.50287 -0.65744,-0.82599 -1.16731,-0.7022"
     style="fill:#3b455a;fill-opacity:1;fill-rule:nonzero;stroke:none;stroke-width:0.06994014"
     id="path9132"
     inkscape:connector-curvature="0" />
  <path
     d="m 619.98937,237.93906 -6.3121,1.99469 -5.1371,-2.77312 -1.14003,0.79032 0.91552,1.44427 -4.92308,-1.08127 -3.63619,1.87229 -0.78613,5.38679 2.78012,4.88812 5.43085,0.21401 5.719,-3.01232 8.75791,-2.35698 -1.66877,-7.3668"
     style="fill:#c1796b;fill-opacity:1;fill-rule:nonzero;stroke:none;stroke-width:0.06994014"
     id="path9134"
     inkscape:connector-curvature="0" />
  <path
     d="m 614.62216,238.37619 c 9.80212,-2.29893 19.60492,-4.59787 29.40774,-6.8961 2.63814,-0.61897 5.3742,-0.75186 8.01374,-1.39041 3.8579,-0.9337 4.91469,-1.25893 5.45673,-4.93848 1.57086,-10.66377 -0.42523,-21.7283 1.18549,-32.23261 3.87119,-0.38467 7.60878,-1.30228 11.56111,-1.25053 6.45337,0.0854 5.89385,4.52513 6.25684,9.47129 0.43083,5.86588 0.68681,11.75065 0.72738,17.63261 0.0335,4.87483 1.64219,26.01564 -5.51758,27.56202 -5.13151,1.12464 -56.84386,3.87748 -56.82148,4.93848 -0.009,-0.42664 -0.26997,-12.89627 -0.26997,-12.89627"
     style="fill:#474ebb;fill-opacity:1;fill-rule:nonzero;stroke:none;stroke-width:0.06994014"
     id="path9136"
     inkscape:connector-curvature="0" />
</svg>
